<svg width="659" height="407" viewBox="0 0 659 407" fill="none" xmlns="http://www.w3.org/2000/svg">
<path d="M244.21 403.848C308.99 405.378 369.75 366.398 433.75 376.568C462.21 381.088 489.98 389.398 518.46 393.768C546.95 398.138 576.99 398.358 603.56 387.198C630.13 376.038 652.48 351.608 654.73 322.878C658.67 272.548 603.66 231.698 607.9 181.388C609.96 156.988 625.84 135.998 632.07 112.318C638.23 88.928 634.37 63.078 621.65 42.508C608.93 21.938 587.53 6.92804 563.85 1.98804C527.13 -5.68196 489.87 10.128 456.58 27.418C423.29 44.708 389.19 64.358 351.69 65.028C318.28 65.628 286.7 50.998 256.55 36.598C226.4 22.198 194.95 7.39804 161.53 7.59804C128.11 7.79804 92.2599 27.938 85.6999 60.708C79.4099 92.128 100.46 127.408 84.6799 155.288C75.8399 170.918 57.8899 178.848 45.6899 192.038C25.1299 214.268 24.7199 252.228 44.7999 274.888C60.0199 292.058 84.6499 300.738 94.9199 321.258C102.02 335.458 100.6 352.418 105.5 367.518C111.42 385.758 127.12 400.488 145.7 405.238C164.28 409.988 181.01 397.878 199.07 391.438C213.76 386.218 217.95 403.228 244.21 403.848Z" fill="#DFEEF4"/>
<path d="M12.0498 135.938C-1.03024 206.818 76.3398 281.908 121.67 282.628C133.82 238.958 83.7298 143.478 12.0498 135.938Z" fill="#A7C1D6"/>
<path d="M14.9395 142.518C2.74945 205.928 71.6995 272.538 112.359 272.898C123.539 233.788 79.2094 148.788 14.9395 142.518Z" fill="#BAD0E5"/>
<path d="M21.7402 148.908L147.95 317.808" stroke="#367FC1" stroke-width="1.2035" stroke-miterlimit="10" stroke-linecap="round"/>
<path d="M0 276.378C18.94 291.988 42.19 300.608 64.1 308.408C86.08 315.678 106.73 322.138 122.02 321.018C123.41 307.378 108.06 282.978 81.55 271.068C56 258.428 19.27 258.288 0 276.378Z" fill="#7ECDED"/>
<path d="M5.34961 277.308C21.5596 291.908 42.2896 299.868 62.0596 306.508C81.8796 312.698 100.75 317.578 114.32 315.688C114.87 303.328 100.6 282.658 77.1996 272.538C54.5296 261.838 22.7296 261.688 5.34961 277.308Z" fill="#89D7EF"/>
<path d="M12.4805 276.438C66.3605 278.628 113.37 304.758 142.43 343.458" stroke="#367FC1" stroke-width="0.7433" stroke-miterlimit="10" stroke-linecap="round"/>
<path d="M369.14 355.218H315.79V392.448H369.14V355.218Z" fill="#42AFE5"/>
<path d="M369.14 355.218H315.79V370.408H369.14V355.218Z" fill="#358AD8"/>
<path d="M431 397.628H253.94V392.108C253.94 388.078 257.2 384.818 261.23 384.818H423.71C427.74 384.818 431 388.078 431 392.108V397.628Z" fill="#42AFE5"/>
<path d="M424.3 384.848C425.17 386.048 425.7 387.528 425.7 389.128V391.758C425.7 393.358 424.41 394.648 422.81 394.648H253.94V397.628H431V392.108C431 388.278 428.05 385.148 424.3 384.848Z" fill="#358AD8"/>
<path d="M542.93 356.418H142.01C129.71 356.418 119.73 346.438 119.73 334.138V99.5881C119.73 87.2881 129.71 77.308 142.01 77.308H542.94C555.24 77.308 565.22 87.2881 565.22 99.5881V334.148C565.21 346.448 555.24 356.418 542.93 356.418Z" fill="#42AFE5"/>
<path d="M538.921 346.678H146.021C137.181 346.678 130.011 339.508 130.011 330.668V103.058C130.011 94.218 137.181 87.048 146.021 87.048H538.921C547.761 87.048 554.931 94.218 554.931 103.058V330.668C554.931 339.508 547.761 346.678 538.921 346.678Z" fill="#1F4377"/>
<path d="M518.06 336.238H151.86C143.62 336.238 136.94 329.558 136.94 321.318V109.178C136.94 100.938 143.62 94.2581 151.86 94.2581H518.06C526.3 94.2581 532.98 100.938 532.98 109.178V321.318C532.98 329.558 526.3 336.238 518.06 336.238Z" fill="#2859A0"/>
<path d="M130.011 112.218H554.931" stroke="#527BC6" stroke-width="0.6558" stroke-miterlimit="10"/>
<path d="M130.011 132.538H554.931" stroke="#527BC6" stroke-width="0.6558" stroke-miterlimit="10"/>
<path d="M130.011 152.868H554.931" stroke="#527BC6" stroke-width="0.6558" stroke-miterlimit="10"/>
<path d="M130.011 173.188H554.931" stroke="#528E78" stroke-width="0.6558" stroke-miterlimit="10"/>
<path d="M130.011 193.508H554.931" stroke="#528E78" stroke-width="0.6558" stroke-miterlimit="10"/>
<path d="M130.011 213.838H554.931" stroke="#527BC6" stroke-width="0.6558" stroke-miterlimit="10"/>
<path d="M130.011 234.158H554.931" stroke="#527BC6" stroke-width="0.6558" stroke-miterlimit="10"/>
<path d="M130.011 254.478H554.931" stroke="#527BC6" stroke-width="0.6558" stroke-miterlimit="10"/>
<path d="M130.011 274.808H554.931" stroke="#527BC6" stroke-width="0.6558" stroke-miterlimit="10"/>
<path d="M130.011 295.128H554.931" stroke="#527BC6" stroke-width="0.6558" stroke-miterlimit="10"/>
<path d="M130.011 315.448H554.931" stroke="#527BC6" stroke-width="0.6558" stroke-miterlimit="10"/>
<path d="M542.93 84.398H445.58V156.078C445.58 159.458 448.32 162.188 451.69 162.188H565.21V106.678C565.21 94.368 555.24 84.398 542.93 84.398Z" fill="#7DBCE2"/>
<path d="M155.87 181.068H150.23V198.458H155.87V181.068Z" fill="#60EABC"/>
<path d="M153.051 182.698V177.058" stroke="#60EABC" stroke-width="0.2146" stroke-miterlimit="10" stroke-linecap="round"/>
<path d="M153.051 196.958V222.498" stroke="#60EABC" stroke-width="0.2146" stroke-miterlimit="10" stroke-linecap="round"/>
<path d="M176.701 203.788H171.061V234.588H176.701V203.788Z" fill="#60EABC"/>
<path d="M173.881 205.418V199.778" stroke="#60EABC" stroke-width="0.2146" stroke-miterlimit="10" stroke-linecap="round"/>
<path d="M173.881 232.968V248.198" stroke="#60EABC" stroke-width="0.2146" stroke-miterlimit="10" stroke-linecap="round"/>
<path d="M197.531 240.558H191.891V266.908H197.531V240.558Z" fill="#60EABC"/>
<path d="M194.711 231.118V241.608" stroke="#60EABC" stroke-width="0.2146" stroke-miterlimit="10" stroke-linecap="round"/>
<path d="M194.711 265.288V270.928" stroke="#60EABC" stroke-width="0.2146" stroke-miterlimit="10" stroke-linecap="round"/>
<path d="M207.951 218.268H202.311V255.688H207.951V218.268Z" fill="#60EABC"/>
<path d="M205.131 219.888V214.258" stroke="#60EABC" stroke-width="0.2146" stroke-miterlimit="10" stroke-linecap="round"/>
<path d="M205.131 254.058V259.698" stroke="#60EABC" stroke-width="0.2146" stroke-miterlimit="10" stroke-linecap="round"/>
<path d="M218.361 234.158H212.721V271.578H218.361V234.158Z" fill="#60EABC"/>
<path d="M215.541 235.788V230.148" stroke="#60EABC" stroke-width="0.2146" stroke-miterlimit="10" stroke-linecap="round"/>
<path d="M215.541 269.958V275.598" stroke="#60EABC" stroke-width="0.2146" stroke-miterlimit="10" stroke-linecap="round"/>
<path d="M249.611 214.258H243.971V251.678H249.611V214.258Z" fill="#60EABC"/>
<path d="M246.791 215.878V210.238" stroke="#60EABC" stroke-width="0.2146" stroke-miterlimit="10" stroke-linecap="round"/>
<path d="M246.791 250.048V255.688" stroke="#60EABC" stroke-width="0.2146" stroke-miterlimit="10" stroke-linecap="round"/>
<path d="M260.021 213.058H254.381V239.888H260.021V213.058Z" fill="#60EABC"/>
<path d="M257.201 215.248V198.458" stroke="#60EABC" stroke-width="0.2146" stroke-miterlimit="10" stroke-linecap="round"/>
<path d="M257.201 238.268V243.908" stroke="#60EABC" stroke-width="0.2146" stroke-miterlimit="10" stroke-linecap="round"/>
<path d="M280.851 209.588H275.211V241.848H280.851V209.588Z" fill="#60EABC"/>
<path d="M278.031 211.208V198.148" stroke="#60EABC" stroke-width="0.2146" stroke-miterlimit="10" stroke-linecap="round"/>
<path d="M278.031 240.218V245.858" stroke="#60EABC" stroke-width="0.2146" stroke-miterlimit="10" stroke-linecap="round"/>
<path d="M291.271 200.968H285.631V238.388H291.271V200.968Z" fill="#60EABC"/>
<path d="M288.451 202.598V196.958" stroke="#60EABC" stroke-width="0.2146" stroke-miterlimit="10" stroke-linecap="round"/>
<path d="M288.451 236.768V242.408" stroke="#60EABC" stroke-width="0.2146" stroke-miterlimit="10" stroke-linecap="round"/>
<path d="M312.101 181.068H306.461V210.238H312.101V181.068Z" fill="#60EABC"/>
<path d="M309.281 182.698V177.058" stroke="#60EABC" stroke-width="0.2146" stroke-miterlimit="10" stroke-linecap="round"/>
<path d="M309.281 207.548V222.498" stroke="#60EABC" stroke-width="0.2146" stroke-miterlimit="10" stroke-linecap="round"/>
<path d="M332.93 180.348H327.29V210.368H332.93V180.348Z" fill="#60EABC"/>
<path d="M330.1 182.418V168.928" stroke="#60EABC" stroke-width="0.2146" stroke-miterlimit="10" stroke-linecap="round"/>
<path d="M330.1 208.738V214.378" stroke="#60EABC" stroke-width="0.2146" stroke-miterlimit="10" stroke-linecap="round"/>
<path d="M343.34 154.228H337.7V189.138H343.34V154.228Z" fill="#60EABC"/>
<path d="M340.521 155.858V150.218" stroke="#60EABC" stroke-width="0.2146" stroke-miterlimit="10" stroke-linecap="round"/>
<path d="M340.521 187.518V195.668" stroke="#60EABC" stroke-width="0.2146" stroke-miterlimit="10" stroke-linecap="round"/>
<path d="M353.76 162.358H348.12V199.778H353.76V162.358Z" fill="#60EABC"/>
<path d="M350.93 163.978V158.338" stroke="#60EABC" stroke-width="0.2146" stroke-miterlimit="10" stroke-linecap="round"/>
<path d="M350.93 198.148V203.788" stroke="#60EABC" stroke-width="0.2146" stroke-miterlimit="10" stroke-linecap="round"/>
<path d="M364.17 139.628H358.53V177.048H364.17V139.628Z" fill="#60EABC"/>
<path d="M361.351 141.258V135.618" stroke="#60EABC" stroke-width="0.2146" stroke-miterlimit="10" stroke-linecap="round"/>
<path d="M361.351 175.428V181.068" stroke="#60EABC" stroke-width="0.2146" stroke-miterlimit="10" stroke-linecap="round"/>
<path d="M385 137.148H379.36V174.568H385V137.148Z" fill="#60EABC"/>
<path d="M382.181 138.768V133.138" stroke="#60EABC" stroke-width="0.2146" stroke-miterlimit="10" stroke-linecap="round"/>
<path d="M382.181 172.938V178.578" stroke="#60EABC" stroke-width="0.2146" stroke-miterlimit="10" stroke-linecap="round"/>
<path d="M395.42 141.158H389.78V178.578H395.42V141.158Z" fill="#60EABC"/>
<path d="M392.59 142.788V137.148" stroke="#60EABC" stroke-width="0.2146" stroke-miterlimit="10" stroke-linecap="round"/>
<path d="M392.59 176.958V182.588" stroke="#60EABC" stroke-width="0.2146" stroke-miterlimit="10" stroke-linecap="round"/>
<path d="M405.83 131.508H400.19V168.928H405.83V131.508Z" fill="#60EABC"/>
<path d="M403.011 133.138V127.498" stroke="#60EABC" stroke-width="0.2146" stroke-miterlimit="10" stroke-linecap="round"/>
<path d="M403.011 167.308V172.938" stroke="#60EABC" stroke-width="0.2146" stroke-miterlimit="10" stroke-linecap="round"/>
<path d="M437.071 145.268H431.431V182.688H437.071V145.268Z" fill="#60EABC"/>
<path d="M434.251 146.898V141.258" stroke="#60EABC" stroke-width="0.2146" stroke-miterlimit="10" stroke-linecap="round"/>
<path d="M434.251 181.068V186.708" stroke="#60EABC" stroke-width="0.2146" stroke-miterlimit="10" stroke-linecap="round"/>
<path d="M447.491 165.178H441.851V196.408H447.491V165.178Z" fill="#60EABC"/>
<path d="M444.671 166.798V161.158" stroke="#60EABC" stroke-width="0.2146" stroke-miterlimit="10" stroke-linecap="round"/>
<path d="M444.671 194.468V206.608" stroke="#60EABC" stroke-width="0.2146" stroke-miterlimit="10" stroke-linecap="round"/>
<path d="M457.901 174.138H452.261V211.558H457.901V174.138Z" fill="#60EABC"/>
<path d="M455.081 175.758V170.118" stroke="#60EABC" stroke-width="0.2146" stroke-miterlimit="10" stroke-linecap="round"/>
<path d="M455.081 209.928V215.568" stroke="#60EABC" stroke-width="0.2146" stroke-miterlimit="10" stroke-linecap="round"/>
<path d="M468.321 176.618H462.681V205.418H468.321V176.618Z" fill="#60EABC"/>
<path d="M465.501 178.578V163.978" stroke="#60EABC" stroke-width="0.2146" stroke-miterlimit="10" stroke-linecap="round"/>
<path d="M465.501 203.788V209.428" stroke="#60EABC" stroke-width="0.2146" stroke-miterlimit="10" stroke-linecap="round"/>
<path d="M489.151 200.968H483.511V238.388H489.151V200.968Z" fill="#60EABC"/>
<path d="M486.331 202.598V196.958" stroke="#60EABC" stroke-width="0.2146" stroke-miterlimit="10" stroke-linecap="round"/>
<path d="M486.331 236.768V242.408" stroke="#60EABC" stroke-width="0.2146" stroke-miterlimit="10" stroke-linecap="round"/>
<path d="M499.561 190.718H493.921V218.488H499.561V190.718Z" fill="#60EABC"/>
<path d="M496.741 192.348V186.708" stroke="#60EABC" stroke-width="0.2146" stroke-miterlimit="10" stroke-linecap="round"/>
<path d="M496.741 217.268V232.148" stroke="#60EABC" stroke-width="0.2146" stroke-miterlimit="10" stroke-linecap="round"/>
<path d="M166.29 204.418H160.65V227.448H166.29V204.418Z" fill="#FF8A8A"/>
<path d="M163.471 206.048V188.838" stroke="#FF8A8A" stroke-width="0.2146" stroke-miterlimit="10" stroke-linecap="round"/>
<path d="M163.471 225.828V231.458" stroke="#FF8A8A" stroke-width="0.2146" stroke-miterlimit="10" stroke-linecap="round"/>
<path d="M187.12 227.448H181.48V252.868H187.12V227.448Z" fill="#FF8A8A"/>
<path d="M184.301 229.488V211.438" stroke="#FF8A8A" stroke-width="0.2146" stroke-miterlimit="10" stroke-linecap="round"/>
<path d="M184.301 251.238V256.878" stroke="#FF8A8A" stroke-width="0.2146" stroke-miterlimit="10" stroke-linecap="round"/>
<path d="M228.781 241.978H223.141V266.148H228.781V241.978Z" fill="#FF8A8A"/>
<path d="M225.961 243.598V237.958" stroke="#FF8A8A" stroke-width="0.2146" stroke-miterlimit="10" stroke-linecap="round"/>
<path d="M225.961 263.348V283.408" stroke="#FF8A8A" stroke-width="0.2146" stroke-miterlimit="10" stroke-linecap="round"/>
<path d="M239.191 231.458H233.551V268.878H239.191V231.458Z" fill="#FF8A8A"/>
<path d="M236.371 233.088V227.448" stroke="#FF8A8A" stroke-width="0.2146" stroke-miterlimit="10" stroke-linecap="round"/>
<path d="M236.371 267.258V272.898" stroke="#FF8A8A" stroke-width="0.2146" stroke-miterlimit="10" stroke-linecap="round"/>
<path d="M270.441 212.408H264.801V230.608H270.441V212.408Z" fill="#FF8A8A"/>
<path d="M267.621 214.028V208.398" stroke="#FF8A8A" stroke-width="0.2146" stroke-miterlimit="10" stroke-linecap="round"/>
<path d="M267.621 229.408V253.838" stroke="#FF8A8A" stroke-width="0.2146" stroke-miterlimit="10" stroke-linecap="round"/>
<path d="M301.68 191.528H296.04V228.948H301.68V191.528Z" fill="#FF8A8A"/>
<path d="M298.86 193.158V187.518" stroke="#FF8A8A" stroke-width="0.2146" stroke-miterlimit="10" stroke-linecap="round"/>
<path d="M298.86 227.328V232.968" stroke="#FF8A8A" stroke-width="0.2146" stroke-miterlimit="10" stroke-linecap="round"/>
<path d="M322.51 170.118H316.87V198.938H322.51V170.118Z" fill="#FF8A8A"/>
<path d="M319.69 171.748V166.108" stroke="#FF8A8A" stroke-width="0.2146" stroke-miterlimit="10" stroke-linecap="round"/>
<path d="M319.69 198.458V211.558" stroke="#FF8A8A" stroke-width="0.2146" stroke-miterlimit="10" stroke-linecap="round"/>
<path d="M374.59 162.358H368.95V199.778H374.59V162.358Z" fill="#FF8A8A"/>
<path d="M371.76 163.978V158.338" stroke="#FF8A8A" stroke-width="0.2146" stroke-miterlimit="10" stroke-linecap="round"/>
<path d="M371.76 198.148V203.788" stroke="#FF8A8A" stroke-width="0.2146" stroke-miterlimit="10" stroke-linecap="round"/>
<path d="M416.25 143.648H410.61V181.068H416.25V143.648Z" fill="#FF8A8A"/>
<path d="M413.42 145.268V139.628" stroke="#FF8A8A" stroke-width="0.2146" stroke-miterlimit="10" stroke-linecap="round"/>
<path d="M413.42 179.438V185.078" stroke="#FF8A8A" stroke-width="0.2146" stroke-miterlimit="10" stroke-linecap="round"/>
<path d="M426.66 167.308H421.021V188.838H426.66V167.308Z" fill="#FF8A8A"/>
<path d="M423.841 167.998V147.398" stroke="#FF8A8A" stroke-width="0.2146" stroke-miterlimit="10" stroke-linecap="round"/>
<path d="M423.841 187.208V192.848" stroke="#FF8A8A" stroke-width="0.2146" stroke-miterlimit="10" stroke-linecap="round"/>
<path d="M478.731 201.778H473.091V230.268H478.731V201.778Z" fill="#FF8A8A"/>
<path d="M475.911 203.168V188.838" stroke="#FF8A8A" stroke-width="0.2146" stroke-miterlimit="10" stroke-linecap="round"/>
<path d="M475.911 228.638V234.278" stroke="#FF8A8A" stroke-width="0.2146" stroke-miterlimit="10" stroke-linecap="round"/>
<path d="M509.981 223.508H504.341V248.048H509.981V223.508Z" fill="#FF8A8A"/>
<path d="M507.161 228.998V206.608" stroke="#FF8A8A" stroke-width="0.2146" stroke-miterlimit="10" stroke-linecap="round"/>
<path d="M507.161 246.418V252.058" stroke="#FF8A8A" stroke-width="0.2146" stroke-miterlimit="10" stroke-linecap="round"/>
<path d="M520.39 216.838H514.75V254.688H520.39V216.838Z" fill="#FF8A8A"/>
<path d="M517.57 217.598V205.888" stroke="#FF8A8A" stroke-width="0.2146" stroke-miterlimit="10" stroke-linecap="round"/>
<path d="M517.57 253.068V258.708" stroke="#FF8A8A" stroke-width="0.2146" stroke-miterlimit="10" stroke-linecap="round"/>
<path d="M530.811 191.568H525.171V216.608H530.811V191.568Z" fill="#60EABC"/>
<path d="M527.991 193.198V187.558" stroke="#60EABC" stroke-width="0.2146" stroke-miterlimit="10" stroke-linecap="round"/>
<path d="M527.991 214.988V226.498" stroke="#60EABC" stroke-width="0.2146" stroke-miterlimit="10" stroke-linecap="round"/>
<path d="M541.22 181.068H535.58V207.008H541.22V181.068Z" fill="#60EABC"/>
<path d="M538.4 182.698V177.058" stroke="#60EABC" stroke-width="0.2146" stroke-miterlimit="10" stroke-linecap="round"/>
<path d="M538.4 203.788V222.498" stroke="#60EABC" stroke-width="0.2146" stroke-miterlimit="10" stroke-linecap="round"/>
<path d="M141.52 286.688H136.94V337.658H141.52V286.688Z" fill="#5C87C6"/>
<path d="M149.48 305.108H144.9V337.658H149.48V305.108Z" fill="#5C87C6"/>
<path d="M157.431 307.918H152.851V337.658H157.431V307.918Z" fill="#5C87C6"/>
<path d="M165.391 308.378H160.811V337.648H165.391V308.378Z" fill="#5C87C6"/>
<path d="M173.351 312.168H168.771V337.648H173.351V312.168Z" fill="#5C87C6"/>
<path d="M181.31 315.448H176.73V337.648H181.31V315.448Z" fill="#5C87C6"/>
<path d="M189.27 319.148H184.69V337.658H189.27V319.148Z" fill="#5C87C6"/>
<path d="M197.221 320.508H192.641V337.658H197.221V320.508Z" fill="#5C87C6"/>
<path d="M205.181 315.868H200.601V337.658H205.181V315.868Z" fill="#5C87C6"/>
<path d="M213.141 316.608H208.561V337.658H213.141V316.608Z" fill="#5C87C6"/>
<path d="M221.101 319.658H216.521V337.658H221.101V319.658Z" fill="#5C87C6"/>
<path d="M229.051 324.198H224.471V337.648H229.051V324.198Z" fill="#5C87C6"/>
<path d="M237.011 326.758H232.431V337.648H237.011V326.758Z" fill="#5C87C6"/>
<path d="M244.971 331.498H240.391V337.658H244.971V331.498Z" fill="#5C87C6"/>
<path d="M252.931 327.898H248.351V337.658H252.931V327.898Z" fill="#5C87C6"/>
<path d="M260.891 322.498H256.311V337.658H260.891V322.498Z" fill="#5C87C6"/>
<path d="M268.841 329.508H264.261V337.658H268.841V329.508Z" fill="#5C87C6"/>
<path d="M276.801 307.918H272.221V337.658H276.801V307.918Z" fill="#5C87C6"/>
<path d="M284.761 292.088H280.181V337.658H284.761V292.088Z" fill="#5C87C6"/>
<path d="M292.721 309.138H288.141V337.658H292.721V309.138Z" fill="#5C87C6"/>
<path d="M300.681 304.588H296.101V337.648H300.681V304.588Z" fill="#5C87C6"/>
<path d="M308.631 302.698H304.051V337.658H308.631V302.698Z" fill="#5C87C6"/>
<path d="M316.591 299.858H312.011V337.658H316.591V299.858Z" fill="#5C87C6"/>
<path d="M324.551 296.918H319.971V337.658H324.551V296.918Z" fill="#5C87C6"/>
<path d="M332.511 289.528H327.931V337.658H332.511V289.528Z" fill="#5C87C6"/>
<path d="M340.471 286.688H335.891V337.658H340.471V286.688Z" fill="#5C87C6"/>
<path d="M348.421 282.608H343.841V337.648H348.421V282.608Z" fill="#5C87C6"/>
<path d="M356.381 279.958H351.801V337.648H356.381V279.958Z" fill="#5C87C6"/>
<path d="M364.341 282.048H359.761V337.658H364.341V282.048Z" fill="#5C87C6"/>
<path d="M372.301 278.918H367.721V337.658H372.301V278.918Z" fill="#5C87C6"/>
<path d="M380.251 275.318H375.671V337.658H380.251V275.318Z" fill="#5C87C6"/>
<path d="M388.211 272.478H383.631V337.658H388.211V272.478Z" fill="#5C87C6"/>
<path d="M396.171 269.348H391.591V337.658H396.171V269.348Z" fill="#5C87C6"/>
<path d="M404.131 261.388H399.551V337.648H404.131V261.388Z" fill="#5C87C6"/>
<path d="M412.091 279.298H407.511V337.658H412.091V279.298Z" fill="#5C87C6"/>
<path d="M420.041 271.248H415.461V337.658H420.041V271.248Z" fill="#5C87C6"/>
<path d="M428.001 279.298H423.421V337.658H428.001V279.298Z" fill="#5C87C6"/>
<path d="M435.961 295.128H431.381V337.658H435.961V295.128Z" fill="#5C87C6"/>
<path d="M443.921 302.788H439.341V337.648H443.921V302.788Z" fill="#5C87C6"/>
<path d="M451.881 303.268H447.301V337.658H451.881V303.268Z" fill="#5C87C6"/>
<path d="M459.83 297.578H455.25V337.648H459.83V297.578Z" fill="#5C87C6"/>
<path d="M467.791 286.688H463.211V337.658H467.791V286.688Z" fill="#5C87C6"/>
<path d="M475.751 281.858H471.171V337.658H475.751V281.858Z" fill="#5C87C6"/>
<path d="M483.711 290.848H479.131V337.648H483.711V290.848Z" fill="#5C87C6"/>
<path d="M491.671 292.088H487.091V337.658H491.671V292.088Z" fill="#5C87C6"/>
<path d="M499.62 295.128H495.04V337.658H499.62V295.128Z" fill="#5C87C6"/>
<path d="M507.58 286.688H503V337.658H507.58V286.688Z" fill="#5C87C6"/>
<path d="M515.541 296.218H510.961V337.658H515.541V296.218Z" fill="#5C87C6"/>
<path d="M523.501 303.268H518.921V337.658H523.501V303.268Z" fill="#5C87C6"/>
<path d="M531.45 286.688H526.87V337.658H531.45V286.688Z" fill="#5C87C6"/>
<path opacity="0.5" d="M511.549 329.048H478.719C471.139 329.048 464.989 322.898 464.989 315.318C464.989 307.738 471.139 301.588 478.719 301.588H511.549C519.129 301.588 525.279 307.738 525.279 315.318C525.279 322.898 519.129 329.048 511.549 329.048Z" fill="#4D85D6"/>
<path d="M508.329 325.828H475.5C467.92 325.828 461.77 319.688 461.77 312.098C461.77 304.518 467.92 298.368 475.5 298.368H508.329C515.91 298.368 522.06 304.518 522.06 312.098C522.05 319.678 515.91 325.828 508.329 325.828Z" fill="#4CD8A5"/>
<path d="M507.97 323.538H475.86C469.54 323.538 464.42 318.418 464.42 312.098C464.42 305.778 469.54 300.658 475.86 300.658H507.97C514.29 300.658 519.41 305.778 519.41 312.098C519.41 318.418 514.29 323.538 507.97 323.538Z" fill="#6DF7C6"/>
<path opacity="0.5" d="M440.06 329.048H407.23C399.65 329.048 393.5 322.898 393.5 315.318C393.5 307.738 399.65 301.588 407.23 301.588H440.06C447.64 301.588 453.79 307.738 453.79 315.318C453.79 322.898 447.64 329.048 440.06 329.048Z" fill="#4D85D6"/>
<path d="M436.33 325.828H403.5C395.92 325.828 389.77 319.688 389.77 312.098C389.77 304.518 395.92 298.368 403.5 298.368H436.33C443.91 298.368 450.06 304.518 450.06 312.098C450.05 319.678 443.91 325.828 436.33 325.828Z" fill="#EA6565"/>
<path d="M435.97 323.538H403.86C397.54 323.538 392.42 318.418 392.42 312.098C392.42 305.778 397.54 300.658 403.86 300.658H435.97C442.29 300.658 447.41 305.778 447.41 312.098C447.41 318.418 442.29 323.538 435.97 323.538Z" fill="#FF8A8A"/>
<path d="M410.249 315.938C409.652 315.938 409.072 315.858 408.511 315.7C407.956 315.534 407.51 315.322 407.171 315.063L407.765 313.746C408.089 313.983 408.475 314.174 408.921 314.318C409.367 314.462 409.814 314.534 410.26 314.534C410.757 314.534 411.124 314.462 411.361 314.318C411.599 314.167 411.718 313.969 411.718 313.724C411.718 313.544 411.646 313.396 411.502 313.281C411.365 313.159 411.185 313.062 410.962 312.99C410.746 312.918 410.451 312.838 410.076 312.752C409.5 312.615 409.029 312.478 408.662 312.342C408.295 312.205 407.978 311.985 407.711 311.683C407.452 311.381 407.323 310.977 407.323 310.474C407.323 310.034 407.441 309.638 407.679 309.286C407.917 308.926 408.273 308.641 408.748 308.433C409.23 308.224 409.817 308.119 410.508 308.119C410.991 308.119 411.462 308.177 411.923 308.292C412.384 308.407 412.787 308.573 413.132 308.789L412.592 310.117C411.894 309.721 411.196 309.523 410.497 309.523C410.008 309.523 409.644 309.602 409.407 309.761C409.176 309.919 409.061 310.128 409.061 310.387C409.061 310.646 409.194 310.841 409.461 310.97C409.734 311.093 410.148 311.215 410.703 311.337C411.279 311.474 411.75 311.611 412.117 311.748C412.484 311.885 412.798 312.101 413.057 312.396C413.323 312.691 413.456 313.09 413.456 313.594C413.456 314.026 413.334 314.422 413.089 314.782C412.852 315.135 412.492 315.416 412.009 315.624C411.527 315.833 410.94 315.938 410.249 315.938ZM420.504 314.404V315.808H414.652V308.249H420.364V309.653H416.39V311.294H419.9V312.655H416.39V314.404H420.504ZM421.896 308.249H423.646V314.383H427.436V315.808H421.896V308.249ZM428.413 308.249H430.163V314.383H433.953V315.808H428.413V308.249Z" fill="white"/>
<path d="M487.19 311.877C487.622 312.014 487.96 312.245 488.205 312.568C488.45 312.885 488.572 313.278 488.572 313.746C488.572 314.408 488.313 314.919 487.795 315.279C487.283 315.632 486.535 315.808 485.548 315.808H481.639V308.249H485.333C486.254 308.249 486.96 308.425 487.449 308.778C487.946 309.131 488.194 309.61 488.194 310.214C488.194 310.582 488.104 310.909 487.924 311.197C487.751 311.485 487.507 311.712 487.19 311.877ZM483.378 309.566V311.348H485.117C485.548 311.348 485.876 311.273 486.099 311.121C486.322 310.97 486.434 310.747 486.434 310.452C486.434 310.157 486.322 309.937 486.099 309.793C485.876 309.642 485.548 309.566 485.117 309.566H483.378ZM485.419 314.491C485.88 314.491 486.225 314.415 486.456 314.264C486.693 314.113 486.812 313.879 486.812 313.562C486.812 312.936 486.348 312.622 485.419 312.622H483.378V314.491H485.419ZM493.255 315.938C492.175 315.938 491.333 315.639 490.728 315.041C490.13 314.444 489.832 313.591 489.832 312.482V308.249H491.581V312.417C491.581 313.771 492.143 314.447 493.266 314.447C493.813 314.447 494.23 314.285 494.518 313.961C494.806 313.63 494.95 313.116 494.95 312.417V308.249H496.678V312.482C496.678 313.591 496.376 314.444 495.771 315.041C495.173 315.639 494.335 315.938 493.255 315.938ZM501.929 313.13V315.808H500.18V313.108L497.254 308.249H499.111L501.13 311.607L503.15 308.249H504.867L501.929 313.13Z" fill="white"/>
<path d="M419.22 295.208L414.31 288.238C413.6 287.238 414.32 285.858 415.55 285.858H425.37C426.6 285.858 427.31 287.238 426.61 288.238L421.7 295.208C421.09 296.068 419.83 296.068 419.22 295.208Z" fill="white"/>
<path d="M495.19 286.498L500.1 293.468C500.81 294.468 500.09 295.848 498.86 295.848H489.04C487.81 295.848 487.1 294.468 487.8 293.468L492.71 286.498C493.32 285.638 494.59 285.638 495.19 286.498Z" fill="white"/>
<path opacity="0.25" d="M240.92 307.887C268.554 307.605 290.727 284.975 290.445 257.341C290.163 229.708 267.533 207.535 239.899 207.817C212.266 208.099 190.093 230.729 190.375 258.362C190.657 285.996 213.286 308.169 240.92 307.887Z" fill="#42AFE5"/>
<path d="M287.21 218.328C265.37 192.488 226.71 189.238 200.87 211.078C175.03 232.918 171.78 271.578 193.62 297.418C215.46 323.258 254.12 326.508 279.96 304.668C305.8 282.828 309.05 244.178 287.21 218.328ZM204.34 288.358C187.5 268.438 190.01 238.638 209.93 221.798C229.85 204.958 259.65 207.468 276.49 227.388C293.33 247.308 290.82 277.108 270.9 293.948C250.98 310.788 221.18 308.288 204.34 288.358Z" fill="#66BAFF"/>
<path d="M209.93 221.808C229.85 204.968 259.65 207.478 276.49 227.398C278.84 230.178 280.8 233.158 282.4 236.258C280.57 231.738 278.02 227.428 274.7 223.508C257.86 203.588 228.07 201.088 208.14 217.918C191 232.408 186.77 256.488 196.64 275.618C189.18 257.198 193.93 235.328 209.93 221.808Z" fill="#4995E8"/>
<path d="M295.2 230.468C305.18 254.458 299.07 283.118 278.17 300.788C252.33 322.628 213.67 319.388 191.83 293.538C188.62 289.738 185.97 285.658 183.84 281.408C186.2 287.078 189.45 292.488 193.63 297.428C215.47 323.268 254.13 326.518 279.97 304.678C302 286.038 307.59 255.178 295.2 230.468Z" fill="#4995E8"/>
<path d="M206.531 300.75L192.498 284.145L157.814 313.457L171.847 330.062L206.531 300.75Z" fill="#66BAFF"/>
<path d="M171.85 330.048L169.16 326.868L197.03 303.858C198.73 302.448 201.18 302.418 202.92 303.788L171.85 330.048Z" fill="#4995E8"/>
<path d="M176.26 331.358L157.27 308.888C156.57 308.058 155.33 307.958 154.5 308.658L73.2501 377.318C72.4201 378.018 72.3201 379.258 73.0201 380.088L92.0101 402.558C92.7101 403.388 93.9501 403.488 94.7801 402.788L176.03 334.128C176.86 333.428 176.96 332.188 176.26 331.358Z" fill="#224C89"/>
<path d="M151.49 319.148L118.53 346.998" stroke="white" stroke-width="1.4837" stroke-miterlimit="10" stroke-linecap="round"/>
<path d="M154.97 346.168L102.05 390.898" stroke="#143A66" stroke-width="1.4837" stroke-miterlimit="10" stroke-linecap="round"/>
<path d="M271.56 273.498C271.56 276.238 269.34 278.458 266.6 278.458C263.86 278.458 261.64 276.238 261.64 273.498C261.64 270.758 263.86 268.538 266.6 268.538C269.34 268.538 271.56 270.758 271.56 273.498Z" fill="white"/>
<path d="M609.316 304.402C626.382 287.336 626.382 259.667 609.316 242.601C592.25 225.535 564.581 225.535 547.516 242.601C530.45 259.667 530.45 287.336 547.515 304.402C564.581 321.467 592.25 321.467 609.316 304.402Z" fill="white" stroke="#42AFE5" stroke-width="2.3646" stroke-miterlimit="10"/>
<path d="M565.84 260.958H557.3V296.208H565.84V260.958Z" fill="#358AD8"/>
<path d="M582.12 254.808H573.58V296.218H582.12V254.808Z" fill="#66BAFF"/>
<path d="M598.41 246.408H589.87V296.218H598.41V246.408Z" fill="#358AD8"/>
<path d="M158.2 68.5481C171.483 68.5481 182.25 57.7805 182.25 44.4981C182.25 31.2156 171.483 20.4481 158.2 20.4481C144.918 20.4481 134.15 31.2156 134.15 44.4981C134.15 57.7805 144.918 68.5481 158.2 68.5481Z" fill="white" stroke="#42AFE5" stroke-width="1.3011" stroke-miterlimit="10"/>
<path d="M155.691 32.158H150.181V58.898H155.691V32.158Z" fill="#358AD8"/>
<path d="M166.2 32.158H160.69V58.898H166.2V32.158Z" fill="#66BAFF"/>
<path d="M152.931 28.228V61.188" stroke="#358AD8" stroke-width="0.8942" stroke-miterlimit="10"/>
<path d="M163.45 28.228V61.188" stroke="#66BAFF" stroke-width="0.8942" stroke-miterlimit="10"/>
<path d="M636.877 215.059C648.776 203.16 648.776 183.868 636.877 171.968C624.978 160.069 605.686 160.069 593.787 171.968C581.887 183.868 581.887 203.16 593.787 215.059C605.686 226.958 624.978 226.958 636.877 215.059Z" fill="white" stroke="#42AFE5" stroke-width="2.3646" stroke-miterlimit="10"/>
<path d="M613.58 214.818V209.578C610.57 209.528 607.46 208.588 605.64 207.298L606.89 203.818C608.76 205.068 611.46 206.048 614.36 206.048C618.04 206.048 620.54 203.918 620.54 200.958C620.54 198.108 618.52 196.338 614.68 194.778C609.39 192.698 606.12 190.318 606.12 185.798C606.12 181.488 609.18 178.218 613.96 177.448V172.208H617.18V177.238C620.29 177.338 622.42 178.168 623.93 179.058L622.63 182.478C621.54 181.858 619.41 180.718 616.09 180.718C612.09 180.718 610.59 183.108 610.59 185.178C610.59 187.878 612.51 189.228 617.03 191.098C622.38 193.278 625.07 195.978 625.07 200.598C625.07 204.698 622.22 208.538 616.87 209.418V214.818H613.58Z" fill="#66BAFF"/>
<path d="M151.563 145.63C154.69 126.364 141.607 108.211 122.341 105.084C103.075 101.957 84.922 115.041 81.7953 134.307C78.6685 153.573 91.7519 171.725 111.018 174.852C130.284 177.979 148.437 164.895 151.563 145.63Z" fill="white" stroke="#42AFE5" stroke-width="2.3646" stroke-miterlimit="10"/>
<path d="M92.5996 154.928L100.25 142.698L108.09 149.868L117.46 135.558L124.82 142.698L135.72 128.018" stroke="#42AFE5" stroke-width="1.3711" stroke-miterlimit="10" stroke-linecap="round"/>
<path d="M100.249 146.928C102.194 146.928 103.769 145.352 103.769 143.408C103.769 141.464 102.194 139.888 100.249 139.888C98.3055 139.888 96.7295 141.464 96.7295 143.408C96.7295 145.352 98.3055 146.928 100.249 146.928Z" fill="#66BAFF"/>
<path d="M111.609 149.888C111.609 151.838 110.029 153.408 108.089 153.408C106.139 153.408 104.569 151.828 104.569 149.888C104.569 147.938 106.149 146.368 108.089 146.368C110.029 146.358 111.609 147.938 111.609 149.888Z" fill="#66BAFF"/>
<path d="M117.679 138.668C119.623 138.668 121.199 137.092 121.199 135.148C121.199 133.204 119.623 131.628 117.679 131.628C115.735 131.628 114.159 133.204 114.159 135.148C114.159 137.092 115.735 138.668 117.679 138.668Z" fill="#66BAFF"/>
<path d="M124.73 146.358C126.674 146.358 128.25 144.782 128.25 142.838C128.25 140.894 126.674 139.318 124.73 139.318C122.786 139.318 121.21 140.894 121.21 142.838C121.21 144.782 122.786 146.358 124.73 146.358Z" fill="#66BAFF"/>
<path d="M137.979 133.078L130.899 126.558L139.619 124.188L137.979 133.078Z" fill="#66BAFF"/>
<path d="M624.76 149.408H450.96C447.99 149.408 445.58 146.998 445.58 144.028V37.458C445.58 34.488 447.99 32.078 450.96 32.078H624.76C627.73 32.078 630.14 34.488 630.14 37.458V144.028C630.14 146.998 627.73 149.408 624.76 149.408Z" fill="#A5E2F9"/>
<path d="M622.84 38.348H452.88V143.138H622.84V38.348Z" stroke="#80CFE8" stroke-width="0.2513" stroke-miterlimit="10"/>
<path d="M452.88 38.348H622.84" stroke="#80CFE8" stroke-width="0.2513" stroke-miterlimit="10"/>
<path d="M452.88 44.498H622.84" stroke="#80CFE8" stroke-width="0.2513" stroke-miterlimit="10"/>
<path d="M452.88 50.648H622.84" stroke="#80CFE8" stroke-width="0.2513" stroke-miterlimit="10"/>
<path d="M452.88 56.808H622.84" stroke="#80CFE8" stroke-width="0.2513" stroke-miterlimit="10"/>
<path d="M452.88 62.958H622.84" stroke="#80CFE8" stroke-width="0.2513" stroke-miterlimit="10"/>
<path d="M452.88 69.108H622.84" stroke="#80CFE8" stroke-width="0.2513" stroke-miterlimit="10"/>
<path d="M452.88 75.258H622.84" stroke="#80CFE8" stroke-width="0.2513" stroke-miterlimit="10"/>
<path d="M452.88 81.408H622.84" stroke="#80CFE8" stroke-width="0.2513" stroke-miterlimit="10"/>
<path d="M452.88 87.558H622.84" stroke="#80CFE8" stroke-width="0.2513" stroke-miterlimit="10"/>
<path d="M452.88 93.718H622.84" stroke="#80CFE8" stroke-width="0.2513" stroke-miterlimit="10"/>
<path d="M452.88 99.868H622.84" stroke="#80CFE8" stroke-width="0.2513" stroke-miterlimit="10"/>
<path d="M452.88 106.018H622.84" stroke="#80CFE8" stroke-width="0.2513" stroke-miterlimit="10"/>
<path d="M452.88 112.168H622.84" stroke="#80CFE8" stroke-width="0.2513" stroke-miterlimit="10"/>
<path d="M452.88 118.318H622.84" stroke="#80CFE8" stroke-width="0.2513" stroke-miterlimit="10"/>
<path d="M452.88 124.468H622.84" stroke="#80CFE8" stroke-width="0.2513" stroke-miterlimit="10"/>
<path d="M452.88 130.628H622.84" stroke="#80CFE8" stroke-width="0.2513" stroke-miterlimit="10"/>
<path d="M452.88 136.778H622.84" stroke="#80CFE8" stroke-width="0.2513" stroke-miterlimit="10"/>
<path d="M452.88 142.928H622.84" stroke="#80CFE8" stroke-width="0.2513" stroke-miterlimit="10"/>
<path d="M464.48 53.738H458.94V138.488H464.48V53.738Z" fill="#80CFE8"/>
<path d="M474.74 53.738H469.2V138.488H474.74V53.738Z" fill="#80CFE8"/>
<path d="M484.99 53.738H479.45V138.488H484.99V53.738Z" fill="#80CFE8"/>
<path d="M495.24 53.738H489.7V138.488H495.24V53.738Z" fill="#80CFE8"/>
<path d="M505.5 53.738H499.96V138.488H505.5V53.738Z" fill="#80CFE8"/>
<path d="M515.75 53.738H510.21V138.488H515.75V53.738Z" fill="#80CFE8"/>
<path d="M526 53.738H520.46V138.488H526V53.738Z" fill="#80CFE8"/>
<path d="M536.25 53.738H530.71V138.488H536.25V53.738Z" fill="#80CFE8"/>
<path d="M546.511 53.738H540.971V138.488H546.511V53.738Z" fill="#80CFE8"/>
<path d="M556.761 53.738H551.221V138.488H556.761V53.738Z" fill="#80CFE8"/>
<path d="M567.011 53.738H561.471V138.488H567.011V53.738Z" fill="#80CFE8"/>
<path d="M577.261 53.738H571.721V138.488H577.261V53.738Z" fill="#80CFE8"/>
<path d="M587.52 53.738H581.98V138.488H587.52V53.738Z" fill="#80CFE8"/>
<path d="M597.77 53.738H592.23V138.488H597.77V53.738Z" fill="#80CFE8"/>
<path d="M608.02 53.738H602.48V138.488H608.02V53.738Z" fill="#80CFE8"/>
<path d="M464.48 53.738H458.94V138.488H464.48V53.738Z" fill="#2859A0"/>
<path d="M474.74 71.988H469.2V138.488H474.74V71.988Z" fill="#2859A0"/>
<path d="M484.99 93.868H479.45V138.488H484.99V93.868Z" fill="#2859A0"/>
<path d="M495.24 85.998H489.7V138.488H495.24V85.998Z" fill="#2859A0"/>
<path d="M505.5 67.988H499.96V138.488H505.5V67.988Z" fill="#2859A0"/>
<path d="M515.75 53.738H510.21V138.488H515.75V53.738Z" fill="#2859A0"/>
<path d="M526 63.238H520.46V138.488H526V63.238Z" fill="#2859A0"/>
<path d="M536.25 61.108H530.71V138.488H536.25V61.108Z" fill="#2859A0"/>
<path d="M546.511 80.488H540.971V138.488H546.511V80.488Z" fill="#2859A0"/>
<path d="M556.761 97.498H551.221V138.488H556.761V97.498Z" fill="#2859A0"/>
<path d="M567.011 94.998H561.471V138.488H567.011V94.998Z" fill="#2859A0"/>
<path d="M577.261 97.498H571.721V138.488H577.261V97.498Z" fill="#2859A0"/>
<path d="M587.52 86.868H581.98V138.488H587.52V86.868Z" fill="#2859A0"/>
<path d="M597.77 83.368H592.23V138.488H597.77V83.368Z" fill="#2859A0"/>
<path d="M608.02 92.748H602.48V138.488H608.02V92.748Z" fill="#2859A0"/>
<path d="M436.77 116.868H319.38C317.37 116.868 315.75 115.238 315.75 113.238V69.838H440.41V113.238C440.4 115.248 438.78 116.868 436.77 116.868Z" fill="#7DBCE2"/>
<path d="M300.13 130.598H208.51C206.73 130.598 205.29 129.158 205.29 127.378V77.308H303.36V127.378C303.36 129.158 301.92 130.598 300.13 130.598Z" fill="#7DBCE2"/>
<path d="M429.67 108.598H312.29C310.28 108.598 308.66 106.968 308.66 104.968V32.978C308.66 30.968 310.29 29.348 312.29 29.348H429.68C431.69 29.348 433.31 30.978 433.31 32.978V104.958C433.31 106.968 431.68 108.598 429.67 108.598Z" fill="#A5E2F9"/>
<path d="M334.96 51.668H318.2V53.718H334.96V51.668Z" fill="#80CFE8"/>
<path d="M355.91 51.668H339.15V53.718H355.91V51.668Z" fill="white"/>
<path d="M427 51.668H402.99V53.718H427V51.668Z" fill="white"/>
<path d="M368.98 51.668H360.771V53.718H368.98V51.668Z" fill="#80CFE8"/>
<path d="M383.77 51.668H371.67V53.718H383.77V51.668Z" fill="#60EABC"/>
<path d="M400.46 51.668H388.36V53.718H400.46V51.668Z" fill="#FF8A8A"/>
<path d="M334.96 57.838H318.2V59.888H334.96V57.838Z" fill="#80CFE8"/>
<path d="M355.91 57.838H339.15V59.888H355.91V57.838Z" fill="white"/>
<path d="M427 57.838H402.99V59.888H427V57.838Z" fill="white"/>
<path d="M368.98 57.838H360.771V59.888H368.98V57.838Z" fill="#80CFE8"/>
<path d="M383.77 57.838H371.67V59.888H383.77V57.838Z" fill="#60EABC"/>
<path d="M400.46 57.838H388.36V59.888H400.46V57.838Z" fill="#FF8A8A"/>
<path d="M334.96 64.008H318.2V66.058H334.96V64.008Z" fill="#80CFE8"/>
<path d="M355.91 64.008H339.15V66.058H355.91V64.008Z" fill="white"/>
<path d="M427 64.008H402.99V66.058H427V64.008Z" fill="white"/>
<path d="M368.98 64.008H360.771V66.058H368.98V64.008Z" fill="#80CFE8"/>
<path d="M383.77 64.008H371.67V66.058H383.77V64.008Z" fill="#60EABC"/>
<path d="M400.46 64.008H388.36V66.058H400.46V64.008Z" fill="#FF8A8A"/>
<path d="M334.96 70.178H318.2V72.228H334.96V70.178Z" fill="#80CFE8"/>
<path d="M355.91 70.178H339.15V72.228H355.91V70.178Z" fill="white"/>
<path d="M427 70.178H402.99V72.228H427V70.178Z" fill="white"/>
<path d="M368.98 70.178H360.771V72.228H368.98V70.178Z" fill="#80CFE8"/>
<path d="M383.77 70.178H371.67V72.228H383.77V70.178Z" fill="#60EABC"/>
<path d="M400.46 70.178H388.36V72.228H400.46V70.178Z" fill="#FF8A8A"/>
<path d="M334.96 76.348H318.2V78.398H334.96V76.348Z" fill="#80CFE8"/>
<path d="M355.91 76.348H339.15V78.398H355.91V76.348Z" fill="white"/>
<path d="M427 76.348H402.99V78.398H427V76.348Z" fill="white"/>
<path d="M368.98 76.348H360.771V78.398H368.98V76.348Z" fill="#80CFE8"/>
<path d="M383.77 76.348H371.67V78.398H383.77V76.348Z" fill="#60EABC"/>
<path d="M400.46 76.348H388.36V78.398H400.46V76.348Z" fill="#FF8A8A"/>
<path d="M334.96 82.518H318.2V84.568H334.96V82.518Z" fill="#80CFE8"/>
<path d="M355.91 82.518H339.15V84.568H355.91V82.518Z" fill="white"/>
<path d="M427 82.518H402.99V84.568H427V82.518Z" fill="white"/>
<path d="M368.98 82.518H360.771V84.568H368.98V82.518Z" fill="#80CFE8"/>
<path d="M383.77 82.518H371.67V84.568H383.77V82.518Z" fill="#60EABC"/>
<path d="M400.46 82.518H388.36V84.568H400.46V82.518Z" fill="#FF8A8A"/>
<path d="M334.96 88.688H318.2V90.738H334.96V88.688Z" fill="#80CFE8"/>
<path d="M355.91 88.688H339.15V90.738H355.91V88.688Z" fill="white"/>
<path d="M427 88.688H402.99V90.738H427V88.688Z" fill="white"/>
<path d="M368.98 88.688H360.771V90.738H368.98V88.688Z" fill="#80CFE8"/>
<path d="M383.77 88.688H371.67V90.738H383.77V88.688Z" fill="#60EABC"/>
<path d="M400.46 88.688H388.36V90.738H400.46V88.688Z" fill="#FF8A8A"/>
<path d="M334.96 94.858H318.2V96.908H334.96V94.858Z" fill="#80CFE8"/>
<path d="M355.91 94.858H339.15V96.908H355.91V94.858Z" fill="white"/>
<path d="M427 94.858H402.99V96.908H427V94.858Z" fill="white"/>
<path d="M368.98 94.858H360.771V96.908H368.98V94.858Z" fill="#80CFE8"/>
<path d="M383.77 94.858H371.67V96.908H383.77V94.858Z" fill="#60EABC"/>
<path d="M400.46 94.858H388.36V96.908H400.46V94.858Z" fill="#FF8A8A"/>
<path d="M334.96 101.028H318.2V103.078H334.96V101.028Z" fill="#80CFE8"/>
<path d="M355.91 101.028H339.15V103.078H355.91V101.028Z" fill="white"/>
<path d="M427 101.028H402.99V103.078H427V101.028Z" fill="white"/>
<path d="M368.98 101.028H360.771V103.078H368.98V101.028Z" fill="#80CFE8"/>
<path d="M383.77 101.028H371.67V103.078H383.77V101.028Z" fill="#60EABC"/>
<path d="M400.46 101.028H388.36V103.078H400.46V101.028Z" fill="#FF8A8A"/>
<path d="M426.99 38.478H318.2V43.408H426.99V38.478Z" fill="#80CFE8"/>
<path d="M287.5 124.538H205.76C201.42 124.538 197.9 121.018 197.9 116.678V75.498C197.9 71.158 201.42 67.638 205.76 67.638H287.5C291.84 67.638 295.36 71.158 295.36 75.498V116.678C295.36 121.018 291.84 124.538 287.5 124.538Z" fill="#3FC6EA"/>
<path d="M285.41 122.608H206.22C202.76 122.608 199.95 119.798 199.95 116.338V75.328C199.95 71.868 202.75 69.058 206.22 69.058H285.41C288.87 69.058 291.68 71.868 291.68 75.328V116.348C291.67 119.798 288.87 122.608 285.41 122.608Z" fill="#88E3FF"/>
<path d="M221.14 94.148H211.15C209.89 94.148 208.86 93.128 208.86 91.858V85.858C208.86 84.598 209.88 83.568 211.15 83.568H221.14C222.4 83.568 223.43 84.598 223.43 85.858V91.858C223.43 93.128 222.41 94.148 221.14 94.148Z" fill="#358AD8"/>
<path d="M282.84 110.848C281.82 110.848 280.9 111.248 280.22 111.908C280.93 112.598 281.37 113.558 281.37 114.618C281.37 115.678 280.93 116.638 280.22 117.328C280.9 117.978 281.82 118.388 282.84 118.388C284.92 118.388 286.61 116.698 286.61 114.618C286.61 112.528 284.92 110.848 282.84 110.848Z" fill="#78C5FF"/>
<path d="M279.07 114.618C279.07 113.558 279.51 112.598 280.22 111.908C279.54 111.258 278.62 110.848 277.6 110.848C275.52 110.848 273.83 112.538 273.83 114.618C273.83 116.698 275.52 118.388 277.6 118.388C278.62 118.388 279.54 117.988 280.22 117.328C279.51 116.638 279.07 115.678 279.07 114.618Z" fill="#358AD8"/>
<path d="M281.37 114.618C281.37 113.558 280.93 112.598 280.22 111.908C279.51 112.598 279.07 113.558 279.07 114.618C279.07 115.678 279.51 116.638 280.22 117.328C280.93 116.638 281.37 115.678 281.37 114.618Z" fill="#49ADEA"/>
<path d="M212 104.668H209.23V104.148H210.3V100.718H209.23V100.248C209.37 100.248 209.53 100.238 209.69 100.208C209.86 100.188 209.98 100.148 210.06 100.108C210.17 100.048 210.25 99.978 210.31 99.888C210.37 99.798 210.41 99.678 210.41 99.528H210.94V104.138H211.99V104.668H212Z" fill="#E9FFF3"/>
<path d="M216.771 104.668H213.301V103.948C213.541 103.738 213.781 103.538 214.021 103.328C214.261 103.118 214.491 102.918 214.701 102.708C215.141 102.278 215.441 101.938 215.601 101.688C215.761 101.438 215.841 101.168 215.841 100.878C215.841 100.608 215.751 100.408 215.581 100.258C215.401 100.108 215.161 100.028 214.851 100.028C214.641 100.028 214.421 100.068 214.171 100.138C213.931 100.208 213.691 100.328 213.461 100.478H213.431V99.7581C213.591 99.6781 213.811 99.6081 214.081 99.5381C214.351 99.4681 214.611 99.438 214.871 99.438C215.391 99.438 215.811 99.5681 216.101 99.8181C216.401 100.068 216.551 100.418 216.551 100.848C216.551 101.038 216.531 101.228 216.481 101.388C216.431 101.548 216.361 101.718 216.261 101.868C216.171 102.008 216.071 102.148 215.951 102.288C215.831 102.428 215.681 102.578 215.511 102.748C215.261 102.988 215.011 103.218 214.751 103.448C214.491 103.678 214.241 103.878 214.021 104.078H216.771V104.668Z" fill="#E9FFF3"/>
<path d="M220.8 102.198C220.91 102.298 221 102.418 221.07 102.568C221.14 102.718 221.18 102.908 221.18 103.148C221.18 103.378 221.14 103.598 221.05 103.788C220.97 103.978 220.85 104.148 220.69 104.298C220.52 104.458 220.32 104.578 220.08 104.658C219.85 104.738 219.59 104.778 219.31 104.778C219.03 104.778 218.75 104.748 218.47 104.678C218.19 104.608 217.97 104.538 217.79 104.458V103.738H217.84C218.03 103.868 218.26 103.968 218.53 104.058C218.79 104.138 219.05 104.188 219.29 104.188C219.43 104.188 219.59 104.168 219.75 104.118C219.91 104.068 220.04 103.998 220.15 103.908C220.26 103.808 220.33 103.698 220.39 103.578C220.44 103.458 220.47 103.298 220.47 103.118C220.47 102.938 220.44 102.778 220.38 102.658C220.32 102.538 220.24 102.448 220.14 102.378C220.04 102.308 219.91 102.258 219.77 102.228C219.62 102.198 219.47 102.188 219.3 102.188H218.99V101.618H219.23C219.58 101.618 219.86 101.548 220.06 101.398C220.27 101.248 220.37 101.038 220.37 100.758C220.37 100.638 220.34 100.528 220.29 100.438C220.24 100.348 220.16 100.268 220.07 100.208C219.97 100.148 219.87 100.108 219.75 100.088C219.64 100.068 219.51 100.058 219.37 100.058C219.15 100.058 218.92 100.098 218.68 100.178C218.43 100.258 218.2 100.368 217.99 100.508H217.96V99.788C218.12 99.708 218.34 99.638 218.61 99.568C218.88 99.498 219.14 99.468 219.4 99.468C219.65 99.468 219.87 99.488 220.06 99.538C220.25 99.588 220.42 99.658 220.58 99.758C220.74 99.868 220.87 99.998 220.95 100.158C221.03 100.318 221.08 100.498 221.08 100.708C221.08 100.988 220.98 101.238 220.78 101.448C220.58 101.658 220.34 101.798 220.07 101.848V101.898C220.18 101.918 220.31 101.958 220.45 102.018C220.58 102.038 220.7 102.108 220.8 102.198Z" fill="#E9FFF3"/>
<path d="M225.841 103.218H225.081V104.658H224.421V103.218H221.971V102.428L224.451 99.538H225.081V102.668H225.841V103.218ZM224.421 102.668V100.358L222.441 102.668H224.421Z" fill="#E9FFF3"/>
<path d="M232.641 103.038C232.641 103.278 232.601 103.508 232.511 103.718C232.421 103.928 232.301 104.118 232.151 104.268C231.981 104.428 231.791 104.548 231.561 104.638C231.331 104.728 231.071 104.768 230.771 104.768C230.491 104.768 230.221 104.738 229.961 104.678C229.701 104.618 229.481 104.548 229.301 104.468V103.738H229.351C229.541 103.858 229.761 103.958 230.011 104.038C230.261 104.118 230.511 104.168 230.751 104.168C230.911 104.168 231.071 104.148 231.221 104.098C231.371 104.048 231.511 103.968 231.631 103.858C231.731 103.758 231.811 103.638 231.861 103.508C231.911 103.368 231.941 103.208 231.941 103.028C231.941 102.848 231.911 102.698 231.851 102.578C231.791 102.458 231.711 102.358 231.601 102.288C231.481 102.198 231.341 102.138 231.171 102.108C231.001 102.068 230.811 102.058 230.601 102.058C230.401 102.058 230.201 102.068 230.021 102.098C229.831 102.128 229.671 102.148 229.541 102.178V99.538H232.621V100.138H230.201V101.498C230.301 101.488 230.401 101.478 230.501 101.478C230.601 101.478 230.691 101.468 230.771 101.468C231.051 101.468 231.291 101.488 231.501 101.538C231.711 101.588 231.901 101.668 232.071 101.788C232.251 101.918 232.401 102.078 232.501 102.278C232.591 102.488 232.641 102.738 232.641 103.038Z" fill="#E9FFF3"/>
<path d="M237.231 102.998C237.231 103.518 237.061 103.948 236.721 104.268C236.381 104.598 235.961 104.758 235.461 104.758C235.211 104.758 234.981 104.718 234.771 104.638C234.561 104.558 234.381 104.448 234.221 104.288C234.021 104.098 233.871 103.848 233.761 103.528C233.651 103.218 233.601 102.838 233.601 102.398C233.601 101.948 233.651 101.538 233.751 101.188C233.851 100.838 234.001 100.528 234.221 100.248C234.421 99.988 234.681 99.788 235.001 99.638C235.321 99.488 235.691 99.418 236.111 99.418C236.251 99.418 236.361 99.428 236.451 99.438C236.541 99.448 236.631 99.468 236.731 99.498V100.158H236.701C236.641 100.128 236.541 100.088 236.411 100.058C236.281 100.028 236.151 100.008 236.011 100.008C235.521 100.008 235.121 100.158 234.831 100.468C234.541 100.778 234.371 101.188 234.321 101.718C234.511 101.598 234.701 101.508 234.891 101.448C235.081 101.388 235.291 101.358 235.541 101.358C235.761 101.358 235.951 101.378 236.121 101.418C236.291 101.458 236.461 101.538 236.631 101.658C236.831 101.798 236.981 101.978 237.091 102.188C237.181 102.438 237.231 102.698 237.231 102.998ZM236.531 103.028C236.531 102.818 236.501 102.638 236.441 102.498C236.381 102.358 236.271 102.238 236.131 102.138C236.021 102.068 235.911 102.018 235.781 101.998C235.651 101.978 235.521 101.968 235.381 101.968C235.191 101.968 235.001 101.988 234.841 102.038C234.671 102.088 234.501 102.158 234.321 102.248C234.321 102.298 234.311 102.348 234.311 102.398C234.311 102.448 234.311 102.508 234.311 102.578C234.311 102.938 234.351 103.228 234.421 103.438C234.491 103.648 234.601 103.818 234.731 103.938C234.841 104.038 234.951 104.108 235.071 104.158C235.191 104.208 235.331 104.228 235.471 104.228C235.801 104.228 236.061 104.128 236.251 103.928C236.441 103.698 236.531 103.408 236.531 103.028Z" fill="#E9FFF3"/>
<path d="M241.651 100.308L239.331 104.658H238.591L241.061 100.138H238.141V99.538H241.641V100.308H241.651Z" fill="#E9FFF3"/>
<path d="M246.151 103.238C246.151 103.678 245.981 104.048 245.631 104.338C245.281 104.628 244.851 104.778 244.331 104.778C243.781 104.778 243.331 104.638 243.001 104.348C242.671 104.058 242.511 103.698 242.511 103.248C242.511 102.968 242.591 102.708 242.761 102.478C242.921 102.248 243.161 102.068 243.461 101.928V101.908C243.181 101.758 242.981 101.598 242.851 101.428C242.721 101.258 242.651 101.038 242.651 100.778C242.651 100.388 242.811 100.068 243.121 99.818C243.441 99.558 243.841 99.428 244.331 99.428C244.841 99.428 245.251 99.548 245.551 99.798C245.851 100.048 246.011 100.358 246.011 100.738C246.011 100.968 245.941 101.198 245.791 101.418C245.651 101.638 245.431 101.818 245.151 101.938V101.958C245.471 102.098 245.721 102.268 245.891 102.468C246.061 102.668 246.151 102.928 246.151 103.238ZM245.441 103.298C245.441 103.088 245.391 102.918 245.301 102.788C245.211 102.658 245.031 102.528 244.761 102.408C244.651 102.358 244.531 102.308 244.411 102.268C244.281 102.228 244.111 102.168 243.901 102.088C243.691 102.198 243.531 102.348 243.401 102.548C243.281 102.738 243.211 102.958 243.211 103.198C243.211 103.508 243.321 103.768 243.531 103.968C243.741 104.168 244.011 104.268 244.341 104.268C244.671 104.268 244.941 104.178 245.141 104.008C245.341 103.838 245.441 103.598 245.441 103.298ZM245.331 100.738C245.331 100.488 245.241 100.298 245.051 100.148C244.861 99.998 244.621 99.928 244.331 99.928C244.041 99.928 243.801 99.998 243.621 100.138C243.441 100.278 243.341 100.458 243.341 100.698C243.341 100.868 243.391 101.008 243.481 101.128C243.571 101.248 243.711 101.358 243.901 101.448C243.981 101.488 244.111 101.548 244.271 101.608C244.431 101.668 244.581 101.728 244.741 101.768C244.971 101.618 245.121 101.458 245.211 101.298C245.291 101.138 245.331 100.948 245.331 100.738Z" fill="#E9FFF3"/>
<path d="M253.06 101.798C253.06 102.248 253.01 102.648 252.91 103.018C252.81 103.378 252.65 103.688 252.45 103.948C252.24 104.208 251.98 104.408 251.67 104.558C251.36 104.698 250.99 104.768 250.56 104.768C250.44 104.768 250.33 104.758 250.22 104.748C250.11 104.738 250.02 104.718 249.94 104.688V104.028H249.97C250.04 104.058 250.13 104.098 250.25 104.128C250.37 104.158 250.51 104.178 250.66 104.178C251.17 104.178 251.56 104.028 251.85 103.718C252.14 103.418 252.3 102.998 252.35 102.458C252.14 102.588 251.94 102.678 251.75 102.738C251.56 102.798 251.36 102.818 251.13 102.818C250.92 102.818 250.73 102.798 250.56 102.758C250.39 102.718 250.22 102.638 250.05 102.518C249.85 102.378 249.7 102.198 249.59 101.988C249.49 101.768 249.44 101.518 249.44 101.218C249.44 100.698 249.61 100.268 249.96 99.938C250.3 99.608 250.72 99.4481 251.22 99.4481C251.47 99.4481 251.7 99.4881 251.91 99.5681C252.12 99.6481 252.31 99.758 252.46 99.918C252.65 100.108 252.81 100.358 252.91 100.648C253 100.938 253.06 101.318 253.06 101.798ZM252.36 101.648C252.36 101.288 252.32 101.008 252.25 100.788C252.18 100.568 252.08 100.408 251.95 100.288C251.84 100.188 251.73 100.108 251.6 100.068C251.48 100.028 251.34 99.998 251.2 99.998C250.87 99.998 250.61 100.098 250.42 100.308C250.23 100.518 250.13 100.808 250.13 101.178C250.13 101.398 250.16 101.578 250.22 101.708C250.28 101.848 250.39 101.968 250.53 102.068C250.63 102.138 250.75 102.188 250.87 102.208C250.99 102.228 251.13 102.248 251.28 102.248C251.46 102.248 251.64 102.228 251.82 102.178C252 102.128 252.18 102.058 252.34 101.968C252.34 101.918 252.35 101.868 252.35 101.828C252.36 101.778 252.36 101.718 252.36 101.648Z" fill="#E9FFF3"/>
<path d="M257.251 104.668H254.481V104.148H255.541V100.718H254.471V100.248C254.611 100.248 254.771 100.238 254.931 100.208C255.091 100.188 255.221 100.148 255.301 100.108C255.411 100.048 255.491 99.978 255.551 99.888C255.611 99.798 255.651 99.678 255.661 99.528H256.191V104.138H257.241V104.668H257.251Z" fill="#E9FFF3"/>
<path d="M262.011 102.098C262.011 103.018 261.871 103.688 261.581 104.118C261.291 104.548 260.851 104.758 260.241 104.758C259.631 104.758 259.181 104.538 258.891 104.108C258.611 103.668 258.471 103.008 258.471 102.098C258.471 101.188 258.611 100.518 258.901 100.078C259.191 99.648 259.631 99.428 260.241 99.428C260.851 99.428 261.301 99.648 261.591 100.088C261.871 100.548 262.011 101.208 262.011 102.098ZM261.111 103.658C261.191 103.468 261.241 103.258 261.271 103.008C261.301 102.758 261.311 102.458 261.311 102.098C261.311 101.748 261.301 101.448 261.271 101.188C261.241 100.928 261.191 100.718 261.101 100.538C261.021 100.358 260.911 100.228 260.771 100.138C260.631 100.048 260.451 100.008 260.241 100.008C260.021 100.008 259.851 100.048 259.711 100.138C259.571 100.228 259.461 100.358 259.371 100.548C259.291 100.718 259.241 100.938 259.211 101.208C259.181 101.478 259.171 101.778 259.171 102.108C259.171 102.468 259.181 102.768 259.211 103.008C259.241 103.248 259.291 103.468 259.371 103.658C259.451 103.838 259.551 103.978 259.691 104.068C259.831 104.158 260.011 104.208 260.241 104.208C260.461 104.208 260.631 104.168 260.781 104.078C260.921 103.978 261.031 103.848 261.111 103.658Z" fill="#E9FFF3"/>
<path d="M266.201 104.668H263.431V104.148H264.501V100.718H263.431V100.248C263.571 100.248 263.731 100.238 263.891 100.208C264.061 100.188 264.181 100.148 264.261 100.108C264.371 100.048 264.451 99.978 264.511 99.888C264.571 99.798 264.611 99.678 264.611 99.528H265.141V104.138H266.191V104.668H266.201Z" fill="#E9FFF3"/>
<path d="M273.151 104.668H270.381V104.148H271.451V100.718H270.381V100.248C270.521 100.248 270.681 100.238 270.841 100.208C271.011 100.188 271.131 100.148 271.211 100.108C271.321 100.048 271.401 99.978 271.461 99.888C271.521 99.798 271.561 99.678 271.561 99.528H272.091V104.138H273.141V104.668H273.151Z" fill="#E9FFF3"/>
<path d="M277.92 104.668H274.45V103.948C274.69 103.738 274.93 103.538 275.17 103.328C275.41 103.118 275.64 102.918 275.85 102.708C276.29 102.278 276.59 101.938 276.75 101.688C276.91 101.438 276.99 101.168 276.99 100.878C276.99 100.608 276.9 100.408 276.73 100.258C276.55 100.108 276.31 100.028 276 100.028C275.79 100.028 275.57 100.068 275.32 100.138C275.08 100.208 274.84 100.328 274.61 100.478H274.58V99.7581C274.74 99.6781 274.96 99.6081 275.23 99.5381C275.5 99.4681 275.76 99.438 276.02 99.438C276.54 99.438 276.96 99.5681 277.25 99.8181C277.55 100.068 277.7 100.418 277.7 100.848C277.7 101.038 277.68 101.228 277.63 101.388C277.58 101.558 277.51 101.718 277.41 101.868C277.32 102.008 277.22 102.148 277.1 102.288C276.98 102.428 276.83 102.578 276.66 102.748C276.41 102.988 276.16 103.218 275.9 103.448C275.64 103.678 275.39 103.878 275.17 104.078H277.92V104.668Z" fill="#E9FFF3"/>
<path d="M281.95 102.198C282.06 102.298 282.15 102.418 282.22 102.568C282.29 102.718 282.33 102.908 282.33 103.148C282.33 103.378 282.29 103.598 282.2 103.788C282.12 103.978 282 104.148 281.84 104.298C281.67 104.458 281.47 104.578 281.23 104.658C281 104.738 280.74 104.778 280.46 104.778C280.18 104.778 279.9 104.748 279.62 104.678C279.35 104.608 279.12 104.538 278.94 104.458V103.738H278.99C279.18 103.868 279.41 103.968 279.68 104.058C279.94 104.138 280.2 104.188 280.44 104.188C280.58 104.188 280.74 104.168 280.9 104.118C281.06 104.068 281.19 103.998 281.3 103.908C281.41 103.808 281.48 103.698 281.54 103.578C281.59 103.458 281.62 103.298 281.62 103.118C281.62 102.938 281.59 102.778 281.53 102.658C281.47 102.538 281.39 102.448 281.29 102.378C281.19 102.308 281.06 102.258 280.92 102.228C280.77 102.198 280.62 102.188 280.45 102.188H280.14V101.618H280.38C280.73 101.618 281.01 101.548 281.21 101.398C281.42 101.248 281.52 101.038 281.52 100.758C281.52 100.638 281.49 100.528 281.44 100.438C281.39 100.348 281.31 100.268 281.22 100.208C281.12 100.148 281.02 100.108 280.9 100.088C280.79 100.068 280.66 100.058 280.52 100.058C280.3 100.058 280.07 100.098 279.83 100.178C279.58 100.258 279.35 100.368 279.14 100.508H279.11V99.788C279.27 99.708 279.49 99.638 279.76 99.568C280.03 99.498 280.29 99.468 280.55 99.468C280.8 99.468 281.02 99.488 281.21 99.538C281.4 99.588 281.57 99.658 281.73 99.758C281.9 99.868 282.02 99.998 282.1 100.158C282.18 100.318 282.23 100.498 282.23 100.708C282.23 100.988 282.13 101.238 281.93 101.448C281.73 101.658 281.49 101.798 281.22 101.848V101.898C281.33 101.918 281.46 101.958 281.6 102.018C281.73 102.038 281.85 102.108 281.95 102.198Z" fill="#E9FFF3"/>
<path d="M286.99 103.218H286.23V104.658H285.57V103.218H283.12V102.428L285.6 99.538H286.23V102.668H286.99V103.218ZM285.57 102.668V100.358L283.59 102.668H285.57Z" fill="#E9FFF3"/>
<path d="M222.08 118.768H210.58C209.83 118.768 209.23 118.168 209.23 117.418V117.218C209.23 116.468 209.83 115.868 210.58 115.868H222.08C222.83 115.868 223.43 116.468 223.43 117.218V117.418C223.43 118.158 222.83 118.768 222.08 118.768Z" fill="#358AD8"/>
<path d="M233.54 76.928H210.68C209.88 76.928 209.23 76.278 209.23 75.478C209.23 74.678 209.88 74.028 210.68 74.028H233.54C234.34 74.028 234.99 74.678 234.99 75.478C234.99 76.278 234.34 76.928 233.54 76.928Z" fill="#358AD8"/>
<path d="M241.17 118.768H229.67C228.92 118.768 228.32 118.168 228.32 117.418V117.218C228.32 116.468 228.92 115.868 229.67 115.868H241.17C241.92 115.868 242.52 116.468 242.52 117.218V117.418C242.52 118.158 241.92 118.768 241.17 118.768Z" fill="#358AD8"/>
<path d="M637.98 249.598H630.14V301.628H637.98V249.598Z" fill="#48D3A1"/>
<path d="M634.06 251.858V244.018" stroke="#48D3A1" stroke-width="0.2984" stroke-miterlimit="10" stroke-linecap="round"/>
<path d="M634.06 299.368V307.208" stroke="#48D3A1" stroke-width="0.2984" stroke-miterlimit="10" stroke-linecap="round"/>
<path d="M61.0599 316.668H54.6299V345.598H61.0599V316.668Z" fill="#48D3A1"/>
<path d="M57.8398 318.528V312.098" stroke="#48D3A1" stroke-width="0.2446" stroke-miterlimit="10" stroke-linecap="round"/>
<path d="M57.8398 341.568V363.888" stroke="#48D3A1" stroke-width="0.2446" stroke-miterlimit="10" stroke-linecap="round"/>
<path d="M74.8703 77.768H67.0303V113.578H74.8703V77.768Z" fill="#48D3A1"/>
<path d="M70.9502 81.228V55.968" stroke="#48D3A1" stroke-width="0.2984" stroke-miterlimit="10" stroke-linecap="round"/>
<path d="M70.9502 111.318V119.158" stroke="#48D3A1" stroke-width="0.2984" stroke-miterlimit="10" stroke-linecap="round"/>
<path d="M658.86 219.838H651.02V251.318H658.86V219.838Z" fill="#FF8A8A"/>
<path d="M654.939 222.108V214.268" stroke="#FF8A8A" stroke-width="0.2984" stroke-miterlimit="10" stroke-linecap="round"/>
<path d="M654.939 245.048V277.448" stroke="#FF8A8A" stroke-width="0.2984" stroke-miterlimit="10" stroke-linecap="round"/>
<path d="M649.73 83.4781H641.89V114.958H649.73V83.4781Z" fill="#FF8A8A"/>
<path d="M645.81 85.738V77.898" stroke="#FF8A8A" stroke-width="0.2984" stroke-miterlimit="10" stroke-linecap="round"/>
<path d="M645.81 108.678V141.088" stroke="#FF8A8A" stroke-width="0.2984" stroke-miterlimit="10" stroke-linecap="round"/>
<path d="M105.63 42.3381H98.4805V71.0381H105.63V42.3381Z" fill="#FF8A8A"/>
<path d="M102.051 44.4081V37.2581" stroke="#FF8A8A" stroke-width="0.272" stroke-miterlimit="10" stroke-linecap="round"/>
<path d="M102.051 65.3181V94.8681" stroke="#FF8A8A" stroke-width="0.272" stroke-miterlimit="10" stroke-linecap="round"/>
</svg>
