<svg width="172" height="151" viewBox="0 0 172 151" fill="none" xmlns="http://www.w3.org/2000/svg">
<path d="M67.9695 18.9439C65.2295 18.9439 63 16.7132 63 13.9719C63 11.2306 65.2295 9 67.9695 9C70.7094 9 72.9389 11.2306 72.9389 13.9719C72.9389 16.7132 70.7094 18.9439 67.9695 18.9439ZM67.9695 10.4199C66.0126 10.4199 64.4192 12.0126 64.4192 13.9719C64.4192 15.9298 66.0111 17.524 67.9695 17.524C69.9263 17.524 71.5197 15.9313 71.5197 13.9719C71.5197 12.0126 69.9263 10.4199 67.9695 10.4199Z" fill="#0C6BC2"/>
<path d="M161.39 19H159.97V30.3653H161.39V19Z" fill="#0C6BC2"/>
<path d="M166.36 23.972H155V25.3919H166.36V23.972Z" fill="#0C6BC2"/>
<path d="M6.39043 40H4.96973V51.3653H6.39043V40Z" fill="#0C6BC2"/>
<path d="M11.3596 44.9735H0V46.3933H11.3596V44.9735Z" fill="#0C6BC2"/>
<path d="M124.19 113.246C145.028 92.3977 145.028 58.5965 124.19 37.7485C103.352 16.9006 69.5678 16.9006 48.73 37.7485C27.8923 58.5965 27.8923 92.3977 48.73 113.246C69.5678 134.094 103.352 134.094 124.19 113.246Z" fill="#1890FF"/>
<path d="M153 76H169C170.1 76 171 76.9 171 78V90C171 91.1 170.1 92 169 92H153C151.9 92 151 91.1 151 90V78C151 76.9 151.9 76 153 76Z" stroke="#0C6BC2" stroke-width="1.22182" stroke-linecap="round" stroke-linejoin="round"/>
<path d="M171 78L161 85L151 78" stroke="#0C6BC2" stroke-width="1.22182" stroke-linecap="round" stroke-linejoin="round"/>
<path d="M126.756 131.298C126.483 131.298 126.213 131.172 126.039 130.937C125.747 130.542 125.832 129.986 126.227 129.693C127.399 128.828 128.558 127.911 129.671 126.972C130.047 126.655 130.607 126.702 130.924 127.078C131.24 127.454 131.194 128.014 130.818 128.331C129.676 129.295 128.485 130.234 127.283 131.124C127.124 131.241 126.939 131.298 126.756 131.298Z" fill="#0C6BC2"/>
<path d="M98.4602 143.514C98.0377 143.514 97.6635 143.212 97.5863 142.782C97.5 142.298 97.821 141.836 98.3042 141.748C100.812 141.297 103.321 140.695 105.758 139.96C106.229 139.818 106.724 140.084 106.866 140.556C107.009 141.025 106.742 141.522 106.271 141.665C103.769 142.419 101.194 143.038 98.6192 143.501C98.5662 143.509 98.5132 143.514 98.4602 143.514ZM113.31 139.036C112.966 139.036 112.637 138.834 112.493 138.498C112.298 138.046 112.507 137.523 112.957 137.328C115.294 136.319 117.599 135.161 119.809 133.889C120.234 133.644 120.778 133.791 121.023 134.217C121.269 134.643 121.122 135.187 120.696 135.432C118.427 136.738 116.062 137.925 113.662 138.961C113.547 139.011 113.428 139.036 113.31 139.036Z" fill="#0C6BC2"/>
<path d="M86.3032 144.596C85.8124 144.596 85.4141 144.197 85.4141 143.706C85.4141 143.215 85.8124 142.816 86.3032 142.816C87.7648 142.816 89.2415 142.769 90.691 142.676C91.1787 142.645 91.6043 143.016 91.6361 143.506C91.6679 143.997 91.2953 144.42 90.8061 144.452C89.3172 144.547 87.8026 144.596 86.3032 144.596Z" fill="#0C6BC2"/>
<path d="M118.555 16.2694C118.413 16.2694 118.269 16.2345 118.134 16.1633C116.851 15.4723 115.529 14.8161 114.204 14.2115C113.757 14.0069 113.56 13.4796 113.764 13.0325C113.969 12.5855 114.496 12.3885 114.943 12.5931C116.303 13.2144 117.662 13.8887 118.978 14.5964C119.411 14.8298 119.571 15.3692 119.34 15.8011C119.179 16.0981 118.872 16.2694 118.555 16.2694Z" fill="#0C6BC2"/>
<path d="M142.939 38.3892C142.653 38.3892 142.371 38.2513 142.2 37.9952C140.683 35.7343 139.009 33.5416 137.225 31.4791C136.904 31.1079 136.944 30.5457 137.316 30.2244C137.687 29.9032 138.249 29.9441 138.57 30.3153C140.399 32.4338 142.118 34.6826 143.676 37.0042C143.95 37.4118 143.841 37.9649 143.433 38.2392C143.282 38.3407 143.109 38.3892 142.939 38.3892ZM132.095 25.8435C131.881 25.8435 131.668 25.7677 131.498 25.6131C129.479 23.7811 127.328 22.0535 125.105 20.4821C124.703 20.1987 124.608 19.6426 124.893 19.241C125.176 18.8394 125.732 18.744 126.132 19.0289C128.413 20.6427 130.621 22.4142 132.693 24.2948C133.056 24.6251 133.084 25.1873 132.753 25.551C132.579 25.745 132.337 25.8435 132.095 25.8435Z" fill="#0C6BC2"/>
<path d="M149.023 49.5878C148.678 49.5878 148.349 49.3848 148.205 49.0483C147.633 47.7103 147.009 46.3707 146.349 45.0705C146.126 44.6326 146.302 44.0961 146.739 43.8749C147.177 43.6521 147.713 43.8279 147.934 44.2658C148.611 45.6009 149.254 46.9753 149.84 48.3498C150.032 48.8013 149.823 49.3241 149.372 49.5181C149.258 49.5651 149.14 49.5878 149.023 49.5878Z" fill="#0C6BC2"/>
<path d="M20.7039 95.0368C20.3161 95.0368 19.9602 94.7807 19.8481 94.3898C19.4407 92.9502 19.0742 91.4787 18.7621 90.0179C18.6591 89.5376 18.9651 89.0648 19.4452 88.9617C19.9253 88.8587 20.398 89.1648 20.5009 89.6452C20.8054 91.0696 21.1613 92.5031 21.5596 93.9049C21.6929 94.3777 21.4188 94.8702 20.9462 95.0035C20.8645 95.0262 20.7842 95.0368 20.7039 95.0368Z" fill="#0C6BC2"/>
<path d="M18.2598 80.759C17.7948 80.759 17.4025 80.3968 17.3737 79.9256C17.2813 78.4602 17.2344 76.9676 17.2344 75.4916C17.2344 73.5762 17.3131 71.641 17.4707 69.7408C17.5116 69.2513 17.9402 68.8831 18.4294 68.927C18.9187 68.9679 19.2837 69.3968 19.2428 69.8862C19.0898 71.738 19.0126 73.6231 19.0126 75.4901C19.0126 76.9282 19.058 78.3829 19.1489 79.8119C19.1807 80.3029 18.8081 80.7242 18.3173 80.756C18.2976 80.759 18.2795 80.759 18.2598 80.759ZM19.9168 60.7713C19.8501 60.7713 19.782 60.7637 19.7138 60.747C19.2352 60.6349 18.9384 60.156 19.0504 59.6787C19.8229 56.3782 20.8498 53.108 22.1008 49.9591C22.2826 49.503 22.8007 49.2787 23.2566 49.4605C23.7125 49.6424 23.9351 50.1591 23.7533 50.6168C22.5341 53.6839 21.5344 56.8692 20.7816 60.0833C20.6862 60.494 20.3212 60.7713 19.9168 60.7713Z" fill="#0C6BC2"/>
<path d="M27.3261 42.1307C27.1746 42.1307 27.0202 42.0913 26.8793 42.0095C26.4552 41.7625 26.3113 41.2185 26.5582 40.7926C27.3095 39.5 28.1138 38.215 28.9483 36.9739C29.2225 36.5663 29.7753 36.4587 30.1827 36.7329C30.5901 37.0072 30.6992 37.5603 30.4251 37.968C29.6117 39.1772 28.8286 40.4305 28.0955 41.6897C27.9304 41.9731 27.6336 42.1307 27.3261 42.1307Z" fill="#0C6BC2"/>
<path d="M104.221 107.029L101.389 98.5383L101.391 98.5342C101.556 98.3196 101.717 98.1078 101.873 97.885C102.478 97.0322 103.004 96.1248 103.442 95.179C104.042 93.8821 105.588 87.3767 105.588 87.3767L108.197 66.192C108.197 66.192 108.197 66.1838 108.199 66.1797C108.512 64.4441 107.371 62.7808 105.638 62.4556C104.195 62.1836 102.794 62.9284 102.173 64.1899L102.097 64.3566C102.007 64.563 101.938 64.7844 101.896 65.0126L97.2202 79.8396C97.126 80.1539 96.9102 80.4245 96.6096 80.5475C96.2927 80.6801 95.8515 80.6787 95.3706 80.1512L95.0346 79.748L102.097 64.3552L102.173 64.1885L106.116 55.5963L107.057 53.5435C107.323 52.9641 107.069 52.2794 106.49 52.0129L82.3008 40.9046C81.7216 40.6381 81.0373 40.8923 80.7709 41.4718L79.8297 43.5245L77.1483 49.3697L75.6088 47.1735C74.4313 45.5813 72.1856 45.2438 70.5942 46.4218L70.5354 46.4669C68.9454 47.6423 68.608 49.8877 69.7869 51.4799L73.6199 56.9493C73.6308 56.9629 73.6417 56.9752 73.6513 56.9889L73.165 58.0481L73.0161 57.9046C71.9261 56.8536 70.1898 56.8837 69.1353 57.9729L67.9387 59.2152C66.8883 60.3058 66.9183 62.0428 68.0084 63.0952L68.9113 63.9685C69.2624 64.3101 69.6763 64.5548 70.1134 64.701L69.7773 65.4335L69.5588 65.2231C68.4687 64.1721 66.7326 64.2022 65.678 65.2914L64.4814 66.5337C63.4309 67.6243 63.461 69.3613 64.5511 70.4123L65.4567 71.287C65.8324 71.6491 66.2749 71.9033 66.7435 72.0455L66.152 73.3342L65.8282 73.0213C64.7354 71.9689 62.9979 71.999 61.9475 73.0896L61.2535 73.8057C60.2017 74.8991 60.2318 76.6375 61.3246 77.6898L61.703 78.0574C62.2357 78.5713 62.9009 78.8638 63.5798 78.9403L62.0267 82.3269L60.7522 85.1053C60.4859 85.6848 60.7399 86.3695 61.3191 86.636L70.0738 90.6567C72.0804 94.3249 75.4571 99.003 78.7396 101.263L78.7383 101.268L82.3882 112.72L104.221 107.029Z" fill="white"/>
<path d="M82.3894 113.524C82.0492 113.524 81.7337 113.306 81.6258 112.965L78.0551 101.764C74.7057 99.3515 71.4027 94.6939 69.4999 91.2772L60.9856 87.3672C60.5102 87.1499 60.1482 86.759 59.9679 86.2697C59.7862 85.7805 59.8067 85.2488 60.0239 84.7732L62.4513 79.4815C61.9705 79.2902 61.5292 79.0059 61.1467 78.6383L60.767 78.2693C59.3601 76.9149 59.3191 74.6626 60.6769 73.2522L61.3735 72.5347C62.2163 71.6601 63.4075 71.3143 64.5263 71.5056L63.9949 70.9931C62.5893 69.636 62.5483 67.3865 63.9048 65.9789L65.1 64.7379C65.7434 64.0737 66.5835 63.7156 67.4399 63.6637C66.7665 63.0091 66.3867 62.1289 66.3689 61.1873C66.3526 60.2402 66.705 59.3437 67.362 58.6617L68.5573 57.4194C69.5736 56.3712 71.0844 56.0828 72.3685 56.568L69.1283 51.9445C68.4439 51.0193 68.1557 49.8617 68.3292 48.7028C68.5026 47.5439 69.1174 46.5216 70.0585 45.826L70.1064 45.7891C71.0585 45.0839 72.2154 44.7969 73.3738 44.9705C74.5322 45.144 75.5539 45.759 76.2519 46.7006L77.0005 47.768L80.0412 41.1411C80.2598 40.6655 80.6491 40.3046 81.1381 40.1229C81.6271 39.9411 82.1585 39.9616 82.6339 40.1803L106.822 51.2886C107.297 51.5072 107.659 51.8967 107.839 52.386C108.021 52.8753 108 53.4069 107.783 53.8825L104.2 61.693C104.711 61.5809 105.248 61.5686 105.783 61.6697C107.931 62.0729 109.364 64.1461 108.991 66.3L106.383 87.4779C106.379 87.5079 106.375 87.5366 106.367 87.5653C106.207 88.2391 104.784 94.1868 104.167 95.5193C103.707 96.5115 103.155 97.4655 102.524 98.3538C102.445 98.4672 102.363 98.5779 102.281 98.6886L104.979 106.778C105.12 107.199 104.893 107.653 104.472 107.793C104.053 107.934 103.598 107.707 103.457 107.286L100.625 98.7952C100.56 98.5998 100.572 98.3852 100.661 98.198C100.685 98.1461 100.718 98.0928 100.754 98.0463C100.912 97.8413 101.065 97.639 101.215 97.4258C101.792 96.614 102.295 95.7476 102.713 94.8442C103.173 93.8479 104.363 89.0591 104.796 87.2373L107.398 66.1019C107.401 66.0814 107.403 66.0622 107.408 66.0417C107.641 64.7447 106.781 63.4915 105.488 63.2483C104.437 63.0501 103.372 63.5817 102.896 64.5397L102.823 64.6955C102.763 64.8349 102.714 64.9962 102.683 65.1616C102.677 65.1944 102.669 65.2272 102.658 65.2586L97.9822 80.0856C97.8169 80.6391 97.4249 81.0832 96.9099 81.2951C96.567 81.4386 95.6614 81.6695 94.7748 80.6965L94.4156 80.2673C94.2175 80.0295 94.1724 79.6988 94.3022 79.4173L106.324 53.2128C106.378 53.0966 106.353 52.9942 106.335 52.9436C106.316 52.893 106.267 52.8001 106.152 52.7468L81.9632 41.6385C81.8471 41.5852 81.7446 41.6098 81.6941 41.6276C81.6436 41.6467 81.5506 41.6959 81.4973 41.8107L77.8734 49.7087C77.7532 49.9697 77.5032 50.1474 77.2177 50.1734C76.9309 50.1993 76.6535 50.0709 76.4883 49.8344L74.9488 47.6395C74.5185 47.0587 73.8697 46.6679 73.1348 46.5572C72.3999 46.4478 71.6663 46.6296 71.068 47.0724L71.0188 47.1093C70.4123 47.5575 70.023 48.2053 69.9124 48.9406C69.8018 49.6759 69.9848 50.4098 70.4274 51.007L74.2685 56.4873C74.4379 56.7238 74.4966 57.0654 74.3764 57.3278L73.8901 58.387C73.7822 58.6234 73.565 58.7929 73.3096 58.8408C73.0528 58.89 72.7905 58.8093 72.6034 58.6275L72.4545 58.4841C71.6854 57.7433 70.4533 57.7638 69.7075 58.5346L68.5136 59.7755C68.1543 60.1486 67.9604 60.6406 67.9699 61.1586C67.9795 61.6766 68.1899 62.1604 68.5614 62.5198L69.4643 63.3931C69.7225 63.6446 70.0244 63.8291 70.3631 63.9411C70.579 64.0136 70.7538 64.1735 70.8453 64.3826C70.9355 64.5917 70.9328 64.8295 70.8385 65.0358L70.5025 65.7684C70.3946 66.0048 70.1787 66.1729 69.9233 66.2221C69.6678 66.2713 69.4056 66.1934 69.2185 66.013L68.9999 65.8025C68.2281 65.0577 66.996 65.0796 66.2502 65.849L65.0562 67.0886C64.3131 67.8594 64.335 69.0907 65.1054 69.8342L66.0111 70.7089C66.2884 70.9754 66.6122 71.1667 66.9755 71.2788C67.1968 71.3471 67.3771 71.507 67.4727 71.7175C67.5669 71.9279 67.5669 72.1698 67.4699 72.3803L66.8785 73.6691C66.7706 73.9055 66.5534 74.075 66.298 74.1228C66.0425 74.172 65.7788 74.0928 65.5917 73.911L65.268 73.598C64.4962 72.8545 63.2641 72.8764 62.5223 73.6458L61.827 74.3633C61.0853 75.1341 61.1072 76.3682 61.879 77.1103L62.2587 77.4794C62.6439 77.8511 63.1316 78.0807 63.667 78.1408C63.9225 78.1695 64.1492 78.3198 64.2763 78.544C64.4033 78.7681 64.4143 79.0387 64.3063 79.2738L61.4774 85.4388C61.4241 85.555 61.4487 85.6575 61.4664 85.708C61.4856 85.7586 61.5347 85.8515 61.6495 85.9048L70.4041 89.9256C70.5612 89.998 70.6896 90.1183 70.7729 90.27C72.6102 93.6279 75.9173 98.3483 79.1902 100.601C79.361 100.718 79.4729 100.892 79.5167 101.08L83.1475 112.474C83.2813 112.896 83.0491 113.348 82.627 113.483C82.5519 113.512 82.47 113.524 82.3894 113.524ZM95.9728 79.625L95.9851 79.6387C96.1108 79.7753 96.2228 79.8409 96.3007 79.8095C96.3662 79.7822 96.4236 79.707 96.4509 79.6127L97.4864 76.3286L95.9728 79.625Z" fill="#0C6BC2"/>
<path d="M77.1465 49.3725L75.607 47.1762C74.4295 45.5841 72.1839 45.2465 70.5925 46.4246L70.5337 46.4697C68.9437 47.645 68.6077 49.8904 69.7852 51.4826L73.6181 56.952C73.6291 56.9657 73.64 56.978 73.6496 56.9916L77.1465 49.3725Z" fill="white"/>
<path d="M73.6512 57.7953C73.4148 57.7953 73.1813 57.6914 73.0242 57.4932C73.0132 57.4809 72.9722 57.4276 72.9627 57.414L69.1297 51.9446C68.4453 51.0193 68.1571 49.8618 68.3306 48.7028C68.5041 47.5439 69.1174 46.5216 70.0599 45.826L70.1077 45.7891C71.0598 45.0839 72.2168 44.7969 73.3752 44.9704C74.5336 45.144 75.5554 45.759 76.2534 46.7006L77.8052 48.9133C78.0593 49.2755 77.9718 49.777 77.6098 50.0312C77.2479 50.2854 76.7466 50.198 76.4925 49.8358L74.953 47.6409C74.5227 47.0601 73.8738 46.6692 73.1389 46.5585C72.4026 46.4478 71.6705 46.6309 71.0721 47.0737L71.023 47.1106C70.4165 47.5589 70.0271 48.2067 69.9165 48.942C69.8059 49.6773 69.9889 50.4112 70.4315 51.0084L74.2795 56.4942C74.5555 56.8413 74.4981 57.3456 74.1525 57.6217C74.0036 57.7379 73.8274 57.7953 73.6512 57.7953Z" fill="#0C6BC2"/>
<path d="M70.0752 90.6581C72.0818 94.3262 75.4585 99.0043 78.741 101.265C79.3502 101.687 79.9554 102.025 80.5509 102.256L70.0752 90.6581Z" fill="white"/>
<path d="M80.5525 103.058C80.4555 103.058 80.3571 103.04 80.2615 103.003C79.6263 102.756 78.9611 102.392 78.2835 101.924C74.781 99.5128 71.2922 94.5545 69.3702 91.0421C69.1571 90.654 69.3005 90.1661 69.6885 89.9529C70.0764 89.7397 70.5641 89.8832 70.7772 90.2713C72.6145 93.6292 75.9217 98.3497 79.1946 100.602C79.7697 101.001 80.3229 101.306 80.8407 101.507C81.2532 101.667 81.4581 102.133 81.2983 102.545C81.1767 102.864 80.8735 103.058 80.5525 103.058Z" fill="#0C6BC2"/>
<path d="M102.096 64.358C102.006 64.5644 101.938 64.7857 101.896 65.014L102.096 64.358Z" fill="white"/>
<path d="M101.896 65.8162C101.849 65.8162 101.799 65.8121 101.752 65.8025C101.316 65.7233 101.028 65.3051 101.107 64.8691C101.16 64.5807 101.245 64.3006 101.362 64.0354C101.54 63.6295 102.013 63.445 102.418 63.6227C102.824 63.8004 103.008 64.2746 102.831 64.6791C102.764 64.8308 102.715 64.9921 102.685 65.1575C102.613 65.5456 102.276 65.8162 101.896 65.8162Z" fill="#0C6BC2"/>
<path d="M108.195 66.1962C108.195 66.1962 108.196 66.1839 108.197 66.1811C108.51 64.4455 107.37 62.7822 105.636 62.4569C104.194 62.185 102.792 62.9298 102.172 64.1912L108.195 66.1962Z" fill="white"/>
<path d="M108.196 66.9984C108.166 66.9984 108.136 66.997 108.105 66.9929C107.665 66.9437 107.348 66.546 107.397 66.1059C107.4 66.0841 107.403 66.0608 107.408 66.0376C107.642 64.7393 106.781 63.4874 105.489 63.2442C104.434 63.046 103.366 63.5804 102.891 64.5452C102.696 64.9429 102.215 65.1055 101.817 64.9101C101.42 64.7147 101.256 64.2336 101.452 63.8359C102.243 62.2274 104.026 61.3363 105.785 61.667C107.941 62.0716 109.378 64.1598 108.987 66.3233C108.987 66.3274 108.986 66.3315 108.985 66.3356C108.919 66.7196 108.583 66.9984 108.196 66.9984Z" fill="#0C6BC2"/>
<path d="M101.895 65.014L97.2188 79.841C97.1246 80.1553 96.9087 80.4259 96.6082 80.5489C96.2913 80.6815 95.8501 80.6801 95.3692 80.1526L95.0332 79.7494L101.895 65.014Z" fill="white"/>
<path d="M96.2504 81.4235C95.8324 81.4235 95.3011 81.2691 94.7765 80.6937L94.4172 80.266C94.1331 79.9257 94.1782 79.42 94.5183 79.1357C94.8585 78.8515 95.3639 78.8966 95.648 79.2369L95.9841 79.64C96.1097 79.7767 96.2217 79.8423 96.2996 79.8108C96.3652 79.7835 96.4226 79.707 96.4499 79.6141L101.13 64.7748C101.264 64.3525 101.713 64.1174 102.137 64.2514C102.559 64.3853 102.794 64.8349 102.66 65.2586L97.9839 80.0856C97.8186 80.639 97.4266 81.0832 96.9116 81.295C96.7722 81.3511 96.5386 81.4235 96.2504 81.4235Z" fill="#0C6BC2"/>
<path d="M99.1738 100.304C100.62 99.3501 101.331 98.5984 101.388 98.5369L101.389 98.5328C101.555 98.3183 101.716 98.1064 101.872 97.8837C102.477 97.0309 103.003 96.1234 103.441 95.1777C104.041 93.8807 105.587 87.3754 105.587 87.3754L108.193 66.1948L99.1738 100.304Z" fill="white"/>
<path d="M99.1747 101.108C98.9138 101.108 98.6584 100.981 98.504 100.747C98.2595 100.376 98.362 99.879 98.7322 99.6357C99.9657 98.8212 100.631 98.1666 100.774 98.0203C100.926 97.8235 101.073 97.6295 101.217 97.4245C101.793 96.6127 102.296 95.7448 102.714 94.8428C103.174 93.8465 104.364 89.0577 104.797 87.236L107.398 66.0991C107.453 65.659 107.853 65.3461 108.291 65.4007C108.731 65.4554 109.044 65.8558 108.989 66.2945L106.383 87.4751C106.379 87.5052 106.375 87.5339 106.367 87.5626C106.207 88.2364 104.783 94.1841 104.167 95.5166C103.708 96.5088 103.155 97.4614 102.524 98.3511C102.367 98.5738 102.206 98.7884 102.039 99.0043C102.019 99.033 101.997 99.0604 101.972 99.0863C101.837 99.2312 101.087 100.003 99.6132 100.975C99.4793 101.064 99.3263 101.108 99.1747 101.108Z" fill="#0C6BC2"/>
<path d="M69.7773 65.4349L70.1134 64.7024L69.7773 65.4349Z" fill="white"/>
<path d="M69.7772 66.2385C69.6652 66.2385 69.5518 66.2153 69.4425 66.1647C69.0395 65.9802 68.8633 65.5032 69.0478 65.1014L69.3838 64.3689C69.5682 63.9657 70.045 63.7894 70.448 63.9739C70.851 64.1584 71.0271 64.6354 70.8427 65.0372L70.5067 65.7697C70.3714 66.0649 70.0805 66.2385 69.7772 66.2385Z" fill="#0C6BC2"/>
<path d="M66.1533 73.3369L66.7448 72.0482L66.1533 73.3369Z" fill="white"/>
<path d="M66.1531 74.1392C66.0411 74.1392 65.9278 74.116 65.8185 74.0654C65.4155 73.8809 65.2393 73.4039 65.4237 73.0008L66.0152 71.712C66.1996 71.3089 66.6763 71.1326 67.0793 71.3171C67.4823 71.5016 67.6584 71.9785 67.474 72.3817L66.8825 73.6705C66.7473 73.9656 66.4564 74.1392 66.1531 74.1392Z" fill="#0C6BC2"/>
<path d="M87.0397 97.1785C86.7733 97.7579 86.0903 98.0121 85.5098 97.7456L70.0768 90.6581L61.3221 86.6374C60.7429 86.3709 60.4888 85.6875 60.7552 85.1067L62.0297 82.3282L88.3142 94.4L87.0397 97.1785Z" fill="#64BDFA"/>
<path d="M85.9875 98.5725C85.7266 98.5725 85.4603 98.5178 85.2075 98.4016L61.0198 87.2933C60.08 86.8615 59.6661 85.7449 60.0978 84.8047L61.3723 82.0262C61.4515 81.8526 61.5977 81.7173 61.778 81.6504C61.9569 81.5848 62.1564 81.5916 62.3299 81.6709L88.6143 93.7427C88.9763 93.9094 89.1362 94.3372 88.9695 94.7007L87.695 97.4791C87.3795 98.1666 86.6978 98.5725 85.9875 98.5725ZM87.0393 97.1785H87.0434H87.0393ZM62.3831 83.2863L61.4091 85.4087C61.3094 85.626 61.4051 85.8829 61.6209 85.9813L85.8086 97.0896C86.0258 97.1894 86.2812 97.0937 86.3809 96.8778L87.3549 94.7554L62.3831 83.2863Z" fill="#0C6BC2"/>
<path d="M73.1656 58.0508L73.6519 56.9916L77.1476 49.3725L79.8304 43.5272L106.115 55.599L102.173 64.1912L102.096 64.358L95.034 79.7507L88.4703 94.0556L88.3132 94.4L62.0273 82.3283L63.5818 78.9417L73.1656 58.0508Z" fill="white"/>
<path d="M89.2962 68.3603C89.717 67.3696 89.727 66.2523 89.3239 65.2543C88.9209 64.2562 88.1379 63.4591 87.1472 63.0384C86.1565 62.6176 85.0392 62.6077 84.0411 63.0107C83.0431 63.4137 82.246 64.1967 81.8253 65.1875C79.9744 69.5455 77.5779 69.9975 77.5779 69.9975L88.7843 74.7568C88.7843 74.7568 87.4454 72.7184 89.2962 68.3603Z" stroke="#0C6BC2" stroke-width="1.5" stroke-linecap="round" stroke-linejoin="round"/>
<path d="M83.2 75.3249C83.0104 75.4671 82.7868 75.557 82.5516 75.5856C82.3163 75.6142 82.0776 75.5805 81.8595 75.4878C81.6414 75.3952 81.4514 75.2469 81.3086 75.0577C81.1658 74.8686 81.0752 74.6452 81.0459 74.41" stroke="#0C6BC2" stroke-width="1.5" stroke-linecap="round" stroke-linejoin="round"/>
<path d="M88.3133 95.2022C88.1985 95.2022 88.0852 95.1776 87.9786 95.1284L61.694 83.0567C61.5 82.9678 61.3512 82.8066 61.2761 82.6057C61.2009 82.4048 61.2105 82.1861 61.2993 81.992L72.4376 57.716L79.101 43.191C79.1898 42.9983 79.3509 42.848 79.5504 42.7742C79.7498 42.7004 79.9711 42.7086 80.1637 42.7974L106.45 54.8692C106.853 55.0537 107.029 55.5307 106.844 55.9338L89.0428 94.7348C88.954 94.9289 88.7928 95.0792 88.5933 95.153C88.5018 95.1858 88.4075 95.2022 88.3133 95.2022ZM63.0914 81.9333L87.9185 93.3353L105.052 55.9926L80.2252 44.5905L63.0914 81.9333Z" fill="#0C6BC2"/>
<path d="M80.7718 41.4745C81.0382 40.895 81.7212 40.6408 82.3018 40.9073L106.491 52.0156C107.07 52.2821 107.324 52.9654 107.058 53.5463L106.116 55.599L79.832 43.5272L80.7718 41.4745Z" fill="#64BDFA"/>
<path d="M106.114 56.3206C106.012 56.3206 105.908 56.2987 105.814 56.255L79.5281 44.1833C79.3547 44.104 79.2194 43.9577 79.1525 43.7773C79.0856 43.5983 79.0938 43.3988 79.173 43.2252L80.1142 41.1725C80.5458 40.2322 81.6605 39.8195 82.6003 40.25L106.789 51.3596C107.244 51.5687 107.591 51.9432 107.766 52.4119C107.939 52.8821 107.92 53.3918 107.711 53.8469L106.77 55.8997C106.691 56.0732 106.545 56.2085 106.364 56.2755C106.284 56.3056 106.199 56.3206 106.114 56.3206ZM80.7862 43.1719L105.759 54.641L106.4 53.2442C106.448 53.139 106.453 53.0215 106.412 52.9135C106.373 52.8056 106.292 52.7194 106.187 52.6716L81.9979 41.562C81.7807 41.4636 81.5252 41.5579 81.4255 41.7738L80.7862 43.1719ZM80.7712 41.4745H80.7753H80.7712Z" fill="#0C6BC2"/>
<path d="M66.1519 73.337L65.8282 73.024C64.7354 71.9717 62.9979 72.0018 61.9475 73.0924L61.2535 73.8085C60.2017 74.9018 60.2318 76.6402 61.3246 77.6926L61.7029 78.0602C62.2357 78.5741 62.9009 78.8665 63.5798 78.9431C64.5373 79.0469 65.5263 78.723 66.2407 77.9782L66.2872 77.9317C67.5193 76.6566 67.481 74.6244 66.2066 73.3917L66.1519 73.337Z" fill="white"/>
<path d="M63.9362 79.763C63.79 79.763 63.6425 79.7548 63.495 79.7398C62.6016 79.6386 61.7915 79.2574 61.1468 78.6369L60.767 78.2679C59.3601 76.9135 59.3191 74.6613 60.6769 73.2509L61.3735 72.5334C62.7272 71.1284 64.9771 71.0888 66.3868 72.4459L66.7105 72.7589C66.7132 72.7616 66.7159 72.7643 66.7187 72.7671L66.7734 72.8217C67.5356 73.5597 67.9713 74.5588 67.9904 75.6302C68.0095 76.7031 67.6107 77.7185 66.8649 78.4893L66.8075 78.5467C66.0548 79.3298 65.0249 79.763 63.9362 79.763ZM63.9211 73.0568C63.413 73.0568 62.9048 73.255 62.5251 73.6486L61.8298 74.3661C61.088 75.1369 61.1099 76.371 61.8817 77.1131L62.2614 77.482C62.6466 77.8538 63.1357 78.0834 63.6698 78.1435C64.4156 78.2242 65.1437 77.9604 65.6627 77.4206L65.7215 77.3618C66.1573 76.9108 66.3963 76.3026 66.3854 75.6589C66.3731 75.0152 66.1122 74.4153 65.6491 73.967L65.2708 73.6007C64.8951 73.2386 64.4074 73.0568 63.9211 73.0568Z" fill="#0C6BC2"/>
<path d="M69.7772 65.4349L69.5586 65.2245C68.4685 64.1735 66.7324 64.2036 65.6778 65.2928L64.4812 66.5351C63.4307 67.6257 63.4608 69.3627 64.5509 70.415L65.4565 71.2897C65.8322 71.6519 66.2748 71.9047 66.7433 72.0482C67.8593 72.3926 69.1229 72.1111 69.993 71.2118L70.5408 70.6392C71.7729 69.3641 71.7388 67.3332 70.4629 66.1005L69.7772 65.4349Z" fill="white"/>
<path d="M67.6945 72.9939C67.2984 72.9939 66.8995 72.9352 66.5075 72.8136C65.9105 72.6304 65.3545 72.3024 64.901 71.8664L63.9941 70.9918C62.5871 69.6347 62.5474 67.3851 63.9039 65.9775L65.0991 64.7365C66.4597 63.3316 68.7095 63.292 70.1137 64.6477L70.3309 64.8568C70.3323 64.8582 70.3323 64.8582 70.3336 64.8595L71.0208 65.5237C71.7912 66.2686 72.2256 67.269 72.2447 68.3405C72.2625 69.4119 71.8636 70.426 71.1178 71.1968L70.5713 71.7667C69.7996 72.5648 68.7614 72.9939 67.6945 72.9939ZM67.6536 65.26C67.1441 65.26 66.6359 65.4581 66.2548 65.8517L65.0609 67.0913C64.3178 67.8621 64.3396 69.0935 65.1087 69.8369L66.0144 70.7116C66.2917 70.9781 66.6154 71.1694 66.9788 71.2815C67.8489 71.5494 68.7833 71.3088 69.4184 70.6542L69.9635 70.0843C70.4129 69.6197 70.6533 69.0101 70.6424 68.3678C70.6315 67.7254 70.3706 67.1255 69.9075 66.6772L69.0045 65.8053C68.6275 65.4404 68.1399 65.26 67.6536 65.26Z" fill="#0C6BC2"/>
<path d="M73.1655 58.0508L73.0167 57.9073C71.9266 56.8563 70.1904 56.8864 69.1358 57.9756L67.9392 59.2179C66.8888 60.3085 66.9188 62.0456 68.0089 63.0979L68.9118 63.9712C69.2629 64.3129 69.6768 64.5575 70.1139 64.7037C71.2518 65.0919 72.5577 64.8172 73.4483 63.8933L74.0002 63.322C75.2324 62.0469 75.1941 60.0147 73.9196 58.782L73.1655 58.0508Z" fill="white"/>
<path d="M71.1352 65.6741C70.705 65.6741 70.2733 65.6044 69.8553 65.4623C69.2898 65.2737 68.783 64.9648 68.3527 64.5452L67.4525 63.6747C66.7723 63.0187 66.3871 62.1344 66.3707 61.1873C66.3543 60.2402 66.7067 59.3437 67.3637 58.6617L68.559 57.4208C69.9195 56.0158 72.1693 55.9762 73.5736 57.3319L74.4765 58.2052C75.2469 58.9501 75.6827 59.9505 75.7018 61.0219C75.7209 62.0948 75.322 63.1102 74.5762 63.881L74.0243 64.4523C73.2607 65.2436 72.2075 65.6741 71.1352 65.6741ZM71.112 57.9415C70.6025 57.9415 70.093 58.1397 69.7119 58.5333L68.518 59.7728C68.1588 60.1459 67.9647 60.6379 67.9743 61.1559C67.9839 61.6738 68.1942 62.1576 68.5658 62.5171L69.4688 63.3904C69.7269 63.6418 70.0288 63.8264 70.3675 63.9384C71.2472 64.2391 72.228 63.9999 72.8714 63.3316L73.4247 62.7603C73.8714 62.2984 74.1104 61.6889 74.0995 61.0466C74.0872 60.4029 73.8263 59.8029 73.3632 59.3546L72.6092 58.6262C72.6092 58.6262 72.6092 58.6262 72.6078 58.6248L72.4589 58.4813C72.0832 58.1219 71.5983 57.9415 71.112 57.9415Z" fill="#0C6BC2"/>
<path d="M87.7514 68.7012L77.5625 64.0218L87.7514 68.7012Z" fill="white"/>
<path d="M85.7982 72.957L75.6094 68.2776L85.7982 72.957Z" fill="white"/>
<path d="M83.8472 77.2142L73.6582 72.5348L83.8472 77.2142Z" fill="white"/>
<path d="M81.893 81.4714L71.7041 76.7919L81.893 81.4714Z" fill="white"/>
<path d="M93.4481 71.3157L91.8799 70.5954L93.4481 71.3157Z" fill="white"/>
<path d="M91.4939 75.5728L89.9258 74.8526L91.4939 75.5728Z" fill="white"/>
<path d="M89.5409 79.83L87.9727 79.1098L89.5409 79.83Z" fill="white"/>
<path d="M87.5887 84.0858L86.0205 83.3656L87.5887 84.0858Z" fill="white"/>
<path d="M21.6709 124.101C21.6709 125.456 21.9779 126.77 22.5833 128.006C23.1649 129.194 23.9963 130.259 25.0541 131.172C26.1066 132.082 27.3308 132.795 28.6929 133.292C30.0992 133.806 31.5922 134.066 33.1304 134.066C33.4064 134.066 33.63 133.843 33.63 133.567C33.63 133.291 33.4064 133.067 33.1304 133.067C31.7093 133.067 30.3318 132.827 29.0356 132.354C27.7877 131.898 26.6678 131.246 25.7072 130.416C23.749 128.725 22.6702 126.482 22.6702 124.101C22.6702 121.721 23.749 119.478 25.7072 117.787C26.6678 116.957 27.7877 116.305 29.0356 115.85C30.3318 115.376 31.7093 115.136 33.1304 115.136C34.5514 115.136 35.929 115.376 37.2251 115.85C38.4732 116.305 39.593 116.957 40.5536 117.787C42.512 119.478 43.5905 121.721 43.5905 124.101C43.5905 125.542 43.2033 126.919 42.4398 128.192C41.7063 129.415 40.6348 130.495 39.3409 131.315C39.1968 131.407 39.1091 131.565 39.1088 131.736C39.1088 131.802 39.1203 133.17 40.1439 134.982C39.3174 134.841 38.5182 134.512 37.7582 133.997C36.96 133.456 36.5078 132.904 36.5033 132.898C36.3299 132.684 36.0154 132.65 35.8011 132.824C35.5867 132.997 35.5525 133.31 35.7249 133.525C35.7461 133.551 36.2557 134.18 37.1669 134.803C38.3683 135.625 39.7189 136.059 41.0747 136.059H41.1032C41.2896 136.058 41.4597 135.954 41.5452 135.788C41.6304 135.623 41.6166 135.424 41.5094 135.271C40.7922 134.254 40.4494 133.347 40.2883 132.766C40.1971 132.437 40.1521 132.172 40.1299 131.993C41.4412 131.112 42.5322 129.98 43.297 128.706C44.1426 127.295 44.5898 125.703 44.5898 124.101C44.5898 122.747 44.2828 121.433 43.6777 120.197C43.0959 119.01 42.2647 117.944 41.2069 117.03C40.1544 116.122 38.9302 115.408 37.5681 114.911C36.1618 114.397 34.6688 114.137 33.1304 114.137C31.5922 114.137 30.0992 114.397 28.6929 114.911C27.3308 115.408 26.1066 116.122 25.0541 117.03C23.9963 117.944 23.1649 119.01 22.5833 120.197C21.9779 121.433 21.6709 122.747 21.6709 124.101Z" fill="#0C6BC2"/>
</svg>
