<svg width="509" height="232" viewBox="0 0 509 232" fill="none" xmlns="http://www.w3.org/2000/svg">
<g opacity="0.2">
<path d="M334.571 47.2157H223.331C219.007 47.2157 215.472 43.6738 215.472 39.3471C215.472 35.0183 219.009 31.4785 223.331 31.4785H334.571C338.895 31.4785 342.43 35.0204 342.43 39.3471C342.432 43.6738 338.895 47.2157 334.571 47.2157Z" fill="white"/>
<path d="M187.257 47.2157H167.051C162.728 47.2157 159.192 43.6738 159.192 39.3471C159.192 35.0183 162.73 31.4785 167.051 31.4785H187.257C191.58 31.4785 195.115 35.0204 195.115 39.3471C195.115 43.6738 191.578 47.2157 187.257 47.2157Z" fill="white"/>
<path d="M362.984 15.7372H342.779C338.455 15.7372 334.92 12.1952 334.92 7.86858C334.92 3.5398 338.457 0 342.779 0H362.984C367.308 0 370.843 3.54193 370.843 7.86858C370.843 12.1952 367.305 15.7372 362.984 15.7372Z" fill="white"/>
<path d="M109.07 206.688H88.8648C84.5413 206.688 81.0059 203.146 81.0059 198.819C81.0059 194.49 84.5434 190.951 88.8648 190.951H109.07C113.394 190.951 116.929 194.493 116.929 198.819C116.929 203.146 113.394 206.688 109.07 206.688Z" fill="white"/>
<path d="M445.539 206.688H425.333C421.01 206.688 417.475 203.146 417.475 198.819C417.475 194.49 421.012 190.951 425.333 190.951H445.539C449.862 190.951 453.398 194.493 453.398 198.819C453.398 203.146 449.862 206.688 445.539 206.688Z" fill="white"/>
<path d="M314.102 15.7372H235.376C231.053 15.7372 227.518 12.1952 227.518 7.86858C227.518 3.5398 231.055 0 235.376 0H314.102C318.425 0 321.96 3.54193 321.96 7.86858C321.963 12.1952 318.425 15.7372 314.102 15.7372Z" fill="white"/>
<path d="M298.146 23.6059C298.146 19.2771 301.683 15.7373 306.005 15.7373H251.201C255.525 15.7373 259.06 19.2792 259.06 23.6059C259.06 27.9347 255.522 31.4745 251.201 31.4745H306.005C301.683 31.4766 298.146 27.9347 298.146 23.6059Z" fill="white"/>
<path d="M391.068 79.1449H113.905C109.581 79.1449 106.046 75.6029 106.046 71.2763C106.046 66.9475 109.583 63.4077 113.905 63.4077H391.068C395.392 63.4077 398.927 66.9496 398.927 71.2763C398.927 75.6051 395.392 79.1449 391.068 79.1449Z" fill="white"/>
<path d="M372.807 110.622H141.69C137.366 110.622 133.831 107.08 133.831 102.754C133.831 98.425 137.369 94.8853 141.69 94.8853H372.807C377.131 94.8853 380.666 98.4272 380.666 102.754C380.669 107.08 377.131 110.622 372.807 110.622Z" fill="white"/>
<path d="M335.637 94.8837C331.314 94.8837 327.778 91.3417 327.778 87.0151C327.778 82.6863 331.316 79.1465 335.637 79.1465H339.492H165.598C169.921 79.1465 173.457 82.6884 173.457 87.0151C173.457 91.3417 169.919 94.8837 165.598 94.8837H339.492H335.637Z" fill="white"/>
<path d="M115.253 157.839H394.998C399.322 157.839 402.857 161.381 402.857 165.708C402.857 170.037 399.319 173.577 394.998 173.577H115.253C110.93 173.577 107.395 170.035 107.395 165.708C107.395 161.381 110.93 157.839 115.253 157.839Z" fill="white"/>
<path d="M130.818 126.363H415.568C419.891 126.363 423.426 129.905 423.426 134.232C423.426 138.561 419.889 142.1 415.568 142.1H130.818C126.494 142.1 122.959 138.559 122.959 134.232C122.959 129.903 126.497 126.363 130.818 126.363Z" fill="white"/>
<path d="M147.039 142.103C151.362 142.103 154.897 145.645 154.897 149.972C154.897 154.3 151.36 157.84 147.039 157.84H143.184H321.116C316.793 157.84 313.257 154.298 313.257 149.972C313.257 145.643 316.795 142.103 321.116 142.103H143.184H147.039Z" fill="white"/>
<path d="M275.039 118.492C275.039 114.163 278.576 110.623 282.898 110.623H206.543C210.866 110.623 214.402 114.165 214.402 118.492C214.402 122.82 210.864 126.36 206.543 126.36H282.898C278.576 126.362 275.039 122.82 275.039 118.492Z" fill="white"/>
</g>
<path opacity="0.75" d="M507.032 230.129H0V232H507.032V230.129Z" fill="white"/>
<path d="M48.8165 230.277H30.4961L27.459 213.476H51.8535L48.8165 230.277Z" fill="white"/>
<path d="M36.6437 206.643C36.6437 206.643 26.4697 210.486 26.5187 203.747C26.5698 197.009 29.707 195.335 25.1514 192.802C20.5958 190.268 17.7632 189.356 18.5725 184.44C19.3818 179.525 8.75422 175.371 9.81698 169.897C10.8797 164.426 19.1284 165.49 22.4189 169.187C25.7094 172.887 33.6023 169.998 35.0719 178.41C36.5414 186.822 36.9951 185.707 42.2578 189.812C47.5226 193.917 45.6548 204.319 36.6437 206.643Z" fill="white"/>
<path d="M48.8165 231.023H30.4961C30.1362 231.023 29.8274 230.765 29.7635 230.408L26.7264 213.607C26.6881 213.39 26.7456 213.166 26.8883 212.995C27.031 212.825 27.2397 212.727 27.4612 212.727H51.8557C52.0772 212.727 52.2859 212.825 52.4286 212.995C52.5713 213.166 52.6288 213.39 52.5905 213.607L49.5534 230.408C49.4853 230.765 49.1765 231.023 48.8165 231.023ZM31.1202 229.53H48.1946L50.9612 214.221H28.3515L31.1202 229.53Z" fill="#070707"/>
<path d="M38.0049 214.222C37.9943 214.222 37.9836 214.222 37.9709 214.222C37.5598 214.205 37.2403 213.855 37.2595 213.444C37.2616 213.389 37.4725 207.819 35.3171 200.31C33.3322 193.399 28.8788 183.375 18.9221 174.875C18.609 174.609 18.5707 174.137 18.839 173.824C19.1053 173.51 19.5759 173.472 19.889 173.741C30.1482 182.498 34.7293 192.832 36.7654 199.959C38.974 207.689 38.7589 213.275 38.7482 213.51C38.7312 213.909 38.4011 214.222 38.0049 214.222Z" fill="#070707"/>
<path d="M31.0796 208.475C29.7719 208.475 28.4855 208.241 27.5037 207.556C26.3451 206.748 25.7637 205.464 25.7764 203.743C25.7956 201.306 26.196 199.54 26.5197 198.12C27.0948 195.596 27.2673 194.832 24.7946 193.457C24.3239 193.194 23.8724 192.951 23.4422 192.719C19.7193 190.706 17.0294 189.254 17.843 184.321C18.171 182.332 16.0604 180.3 13.8284 178.148C11.1917 175.608 8.46557 172.981 9.09172 169.757C9.49638 167.676 10.8807 166.211 12.9914 165.631C16.2116 164.746 20.6948 166.119 22.9822 168.693C24.0598 169.906 25.8084 170.335 27.6613 170.789C31.0136 171.612 34.811 172.544 35.812 178.283C36.9855 185.012 37.3838 185.3 40.4698 187.541C41.1151 188.011 41.8456 188.542 42.7231 189.224C45.3129 191.243 46.4524 194.76 45.6963 198.402C44.7826 202.807 41.4857 206.153 36.8747 207.356C36.4786 207.501 33.7397 208.475 31.0796 208.475ZM15.1169 166.853C14.5078 166.853 13.9221 166.923 13.3832 167.07C11.8029 167.503 10.8509 168.503 10.5527 170.041C10.0821 172.467 12.51 174.809 14.8592 177.071C17.2722 179.396 19.7662 181.799 19.3104 184.562C18.6715 188.441 20.3881 189.369 24.1472 191.403C24.5838 191.638 25.0395 191.885 25.5145 192.15C28.9668 194.069 28.5473 195.907 27.9701 198.449C27.6634 199.798 27.2822 201.477 27.2652 203.752C27.2566 204.967 27.6123 205.812 28.3535 206.33C30.3704 207.737 34.8323 206.528 36.3806 205.944C36.4062 205.936 36.4317 205.927 36.4573 205.921C40.5252 204.871 43.4302 201.948 44.2289 198.099C44.8678 195.018 43.9371 192.068 41.8009 190.401C40.9447 189.734 40.2249 189.211 39.5902 188.75C36.1826 186.277 35.582 185.665 34.3382 178.541C33.5054 173.762 30.4918 173.022 27.3014 172.239C25.31 171.751 23.2505 171.246 21.864 169.687C20.3348 167.964 17.5448 166.853 15.1169 166.853Z" fill="#070707"/>
<path d="M41.3935 207.499C41.3935 207.499 50.296 210.861 50.2513 204.965C50.2066 199.069 47.4613 197.606 51.4461 195.389C55.4309 193.171 57.9121 192.373 57.2029 188.072C56.4937 183.771 65.7923 180.136 64.8637 175.348C63.933 170.561 56.7152 171.491 53.8379 174.728C50.9605 177.965 44.0515 175.438 42.7672 182.797C41.483 190.156 41.0847 189.181 36.4801 192.772C31.8755 196.363 33.5091 205.464 41.3935 207.499Z" fill="#40C9C6"/>
<path d="M40.2032 214.221C39.8071 214.221 39.477 213.908 39.4599 213.507C39.4514 213.302 39.2618 208.398 41.1978 201.619C42.9826 195.371 46.9993 186.312 55.9934 178.634C56.3064 178.365 56.7771 178.403 57.0433 178.717C57.3096 179.03 57.2734 179.502 56.9603 179.768C48.2495 187.206 44.3605 195.979 42.6312 202.028C40.7591 208.575 40.9465 213.392 40.9486 213.439C40.9657 213.85 40.6483 214.2 40.2373 214.217C40.2266 214.221 40.216 214.221 40.2032 214.221Z" fill="#070707"/>
<path d="M46.2653 209.191C43.9289 209.191 41.5308 208.343 41.1708 208.21C37.103 207.149 34.1958 204.195 33.3886 200.306C32.7199 197.084 33.7294 193.97 36.0232 192.181C36.7899 191.582 37.431 191.117 37.9975 190.708C40.6704 188.767 41.0154 188.518 42.0355 182.666C42.9215 177.585 46.4229 176.725 49.2385 176.035C50.8443 175.64 52.3607 175.269 53.285 174.228C55.3424 171.915 59.225 170.725 62.1215 171.522C64.0042 172.038 65.2395 173.348 65.5994 175.205C66.1574 178.077 63.7529 180.393 61.4272 182.632C59.4912 184.496 57.6639 186.257 57.9407 187.95C58.6627 192.33 56.2838 193.616 52.9933 195.395C52.6163 195.597 52.2223 195.813 51.8112 196.041C49.707 197.212 49.8433 197.806 50.3459 200.02C50.6292 201.267 50.9827 202.818 50.9977 204.961C51.0083 206.5 50.4865 207.648 49.4472 208.375C48.574 208.982 47.426 209.191 46.2653 209.191ZM60.2281 172.774C58.1303 172.774 55.7215 173.734 54.3968 175.222C53.1636 176.608 51.3491 177.054 49.592 177.485C46.8318 178.163 44.2228 178.802 43.5051 182.922C42.4104 189.192 41.8801 189.733 38.8728 191.915C38.3169 192.318 37.6865 192.774 36.9411 193.358C35.0989 194.796 34.2981 197.339 34.8497 200.001C35.5418 203.334 38.0571 205.865 41.5819 206.773C41.6075 206.78 41.633 206.788 41.6586 206.797C43.0025 207.302 46.8701 208.351 48.5974 207.144C49.2193 206.709 49.5175 205.997 49.5089 204.967C49.494 202.986 49.1618 201.523 48.8934 200.346C48.378 198.082 48.0053 196.446 51.0871 194.732C51.5045 194.499 51.9028 194.284 52.2862 194.077C55.5362 192.32 57.0185 191.518 56.4712 188.189C56.0644 185.722 58.2666 183.602 60.3942 181.553C62.4324 179.591 64.5388 177.561 64.1363 175.487C63.8828 174.179 63.0714 173.329 61.7275 172.96C61.2589 172.836 60.7542 172.774 60.2281 172.774Z" fill="#070707"/>
<path d="M469.012 230.276H487.332L490.369 213.475H465.975L469.012 230.276Z" fill="white"/>
<path d="M481.184 206.643C481.184 206.643 491.358 210.486 491.309 203.747C491.258 197.009 488.121 195.335 492.677 192.802C497.232 190.268 500.065 189.356 499.256 184.44C498.446 179.525 509.074 175.371 508.011 169.897C506.948 164.426 498.7 165.49 495.409 169.187C492.119 172.885 484.226 169.998 482.756 178.41C481.287 186.822 480.833 185.707 475.57 189.812C470.305 193.917 472.173 204.319 481.184 206.643Z" fill="white"/>
<path d="M487.332 231.023H469.012C468.652 231.023 468.343 230.765 468.279 230.408L465.242 213.607C465.204 213.39 465.261 213.166 465.404 212.995C465.547 212.825 465.755 212.727 465.977 212.727H490.369C490.591 212.727 490.8 212.825 490.942 212.995C491.085 213.166 491.143 213.39 491.104 213.607L488.067 230.408C488.001 230.765 487.692 231.023 487.332 231.023ZM469.634 229.53H486.708L489.475 214.221H466.867L469.634 229.53Z" fill="#070707"/>
<path d="M479.822 214.221C479.426 214.221 479.096 213.908 479.079 213.507C479.068 213.272 478.853 207.686 481.061 199.956C483.097 192.829 487.679 182.498 497.938 173.738C498.251 173.469 498.721 173.507 498.988 173.821C499.254 174.134 499.218 174.606 498.905 174.872C488.929 183.389 484.475 193.437 482.495 200.365C480.352 207.863 480.565 213.385 480.567 213.441C480.584 213.852 480.267 214.202 479.856 214.219C479.843 214.221 479.833 214.221 479.822 214.221Z" fill="#070707"/>
<path d="M486.749 208.474C484.089 208.474 481.35 207.5 480.959 207.355C476.348 206.152 473.051 202.808 472.137 198.401C471.381 194.759 472.52 191.242 475.11 189.223C475.986 188.541 476.718 188.01 477.364 187.54C480.45 185.299 480.848 185.011 482.021 178.282C483.022 172.541 486.822 171.609 490.172 170.788C492.023 170.334 493.771 169.905 494.851 168.692C497.141 166.118 501.622 164.745 504.842 165.63C506.952 166.21 508.337 167.675 508.741 169.756C509.368 172.98 506.641 175.607 504.005 178.147C501.771 180.299 499.662 182.331 499.99 184.32C500.802 189.251 498.112 190.705 494.391 192.718C493.961 192.95 493.509 193.196 493.039 193.456C490.564 194.831 490.738 195.595 491.314 198.119C491.637 199.539 492.038 201.305 492.057 203.742C492.07 205.463 491.488 206.747 490.33 207.555C489.346 208.238 488.057 208.474 486.749 208.474ZM502.712 166.852C500.284 166.852 497.494 167.963 495.963 169.686C494.576 171.245 492.517 171.75 490.526 172.238C487.335 173.021 484.322 173.761 483.489 178.54C482.245 185.664 481.644 186.276 478.237 188.749C477.6 189.21 476.88 189.735 476.026 190.4C473.888 192.068 472.957 195.017 473.598 198.098C474.397 201.947 477.302 204.87 481.37 205.92C481.395 205.926 481.421 205.935 481.446 205.943C482.997 206.527 487.461 207.734 489.473 206.329C490.215 205.811 490.57 204.969 490.562 203.753C490.545 201.478 490.163 199.8 489.857 198.45C489.277 195.908 488.86 194.07 492.312 192.151C492.787 191.886 493.245 191.639 493.68 191.404C497.441 189.372 499.155 188.445 498.516 184.564C498.061 181.8 500.557 179.397 502.968 177.072C505.317 174.81 507.747 172.469 507.274 170.042C506.976 168.504 506.024 167.504 504.444 167.071C503.909 166.922 503.321 166.852 502.712 166.852Z" fill="#070707"/>
<path d="M476.435 207.497C476.435 207.497 467.532 210.86 467.577 204.964C467.622 199.068 470.367 197.605 466.382 195.387C462.398 193.17 459.916 192.372 460.626 188.071C461.335 183.77 452.036 180.134 452.965 175.347C453.895 170.56 461.113 171.489 463.991 174.726C466.868 177.963 473.777 175.436 475.061 182.795C476.346 190.154 476.744 189.18 481.348 192.771C485.953 196.362 484.319 205.463 476.435 207.497Z" fill="#48A9F9"/>
<path d="M477.625 214.222C477.614 214.222 477.603 214.222 477.59 214.222C477.179 214.205 476.86 213.855 476.879 213.443C476.881 213.369 477.058 208.513 475.18 201.975C473.446 195.943 469.557 187.193 460.865 179.773C460.552 179.506 460.514 179.035 460.782 178.721C461.049 178.408 461.519 178.369 461.832 178.638C470.826 186.317 474.843 195.375 476.628 201.623C478.566 208.402 478.374 213.305 478.366 213.511C478.351 213.91 478.021 214.222 477.625 214.222Z" fill="#070707"/>
<path d="M471.564 209.191C470.403 209.191 469.257 208.982 468.382 208.372C467.34 207.645 466.818 206.497 466.831 204.958C466.848 202.815 467.2 201.265 467.483 200.017C467.986 197.804 468.122 197.209 466.018 196.038C465.607 195.81 465.213 195.597 464.836 195.392C461.545 193.613 459.166 192.328 459.888 187.948C460.167 186.255 458.338 184.493 456.402 182.629C454.076 180.39 451.674 178.075 452.229 175.202C452.589 173.345 453.825 172.038 455.707 171.52C458.604 170.724 462.487 171.912 464.544 174.226C465.468 175.266 466.985 175.637 468.59 176.032C471.404 176.723 474.905 177.582 475.791 182.664C476.811 188.515 477.156 188.764 479.829 190.705C480.394 191.114 481.035 191.581 481.804 192.178C484.097 193.967 485.107 197.081 484.438 200.303C483.631 204.192 480.724 207.144 476.656 208.208C476.296 208.342 473.9 209.191 471.564 209.191ZM457.601 172.773C457.075 172.773 456.568 172.833 456.104 172.961C454.76 173.33 453.948 174.181 453.695 175.488C453.292 177.563 455.399 179.591 457.437 181.555C459.564 183.604 461.767 185.726 461.36 188.191C460.81 191.519 462.295 192.321 465.545 194.078C465.926 194.285 466.326 194.501 466.744 194.733C469.826 196.447 469.453 198.083 468.938 200.348C468.669 201.525 468.337 202.988 468.322 204.969C468.314 205.999 468.612 206.711 469.234 207.146C470.961 208.353 474.826 207.304 476.172 206.798C476.198 206.79 476.224 206.781 476.249 206.775C479.774 205.866 482.289 203.335 482.981 200.002C483.533 197.341 482.732 194.797 480.89 193.36C480.142 192.778 479.514 192.319 478.958 191.916C475.951 189.733 475.421 189.193 474.326 182.924C473.606 178.802 470.999 178.162 468.239 177.486C466.482 177.055 464.667 176.61 463.434 175.224C462.109 173.735 459.699 172.773 457.601 172.773Z" fill="#070707"/>
<path opacity="0.7" d="M447.796 100.68C447.348 100.68 446.88 100.646 446.39 100.578C441.091 99.8334 436.406 95.914 434.73 90.8261C434.6 90.4338 434.813 90.0137 435.204 89.8836C435.594 89.7557 436.016 89.9668 436.146 90.3591C437.647 94.9203 441.847 98.4324 446.597 99.0998C447.817 99.2704 449.506 99.2768 450.607 98.3322C451.964 97.1679 451.985 94.9289 451.553 93.223C451.365 92.483 451.112 91.7644 450.846 91.0031C450.403 89.7471 449.947 88.4485 449.815 87.0582C449.685 85.6871 449.987 84.5825 450.694 83.8639C451.614 82.9277 453.065 82.7145 455.011 83.2284C457.976 84.0131 460.738 85.4461 463.09 87.4058L463.179 84.3117C463.209 83.2561 463.318 82.062 464.208 81.2836C465.196 80.4179 466.634 80.5778 467.649 81.0171C469.294 81.7272 470.576 83.1793 471.078 84.9002C471.193 85.2968 470.968 85.7105 470.572 85.8257C470.177 85.9408 469.762 85.7148 469.647 85.3181C469.275 84.0387 468.284 82.9149 467.06 82.3882C466.489 82.143 465.656 82.0001 465.19 82.4074C464.751 82.7913 464.693 83.5802 464.67 84.3543L464.534 89.0605C464.525 89.3569 464.342 89.6192 464.067 89.7301C463.792 89.841 463.479 89.7791 463.266 89.5723C460.862 87.2245 457.876 85.5293 454.63 84.6699C453.242 84.301 452.275 84.382 451.759 84.9087C451.269 85.4077 451.24 86.2756 451.301 86.9153C451.416 88.1223 451.823 89.2801 452.255 90.5063C452.522 91.2654 452.799 92.0501 453.003 92.8541C453.706 95.6283 453.175 98.0998 451.582 99.4645C450.641 100.268 449.35 100.68 447.796 100.68Z" fill="white"/>
<path opacity="0.7" d="M58.2834 114.591C56.9523 114.591 55.7596 114.402 54.6543 114.02C51.7279 113.009 49.628 110.433 49.547 107.753C49.5257 107.032 49.6386 106.345 49.7472 105.682C49.8154 105.271 49.8793 104.88 49.9112 104.492C49.9624 103.88 49.9453 102.763 49.2616 102.168C48.5247 101.526 47.2575 101.697 46.1266 101.906L41.1152 102.831C40.0525 103.027 38.6 103.296 37.3285 102.652C35.499 101.727 35.0411 99.4663 35.203 97.8115C35.2818 97.014 35.467 96.2463 35.6459 95.5043C35.8376 94.7067 36.0208 93.9519 36.0719 93.1885C36.123 92.4059 35.9612 91.442 35.3478 91.0752C34.7195 90.6999 33.7632 90.9963 32.9156 91.3055L26.4133 93.6768C26.0257 93.8175 25.5976 93.6192 25.4571 93.2311C25.3165 92.843 25.5167 92.4165 25.9022 92.2737L32.4044 89.9024C33.2478 89.5953 34.8196 89.0217 36.1102 89.7915C37.1368 90.4057 37.6629 91.6787 37.5564 93.2866C37.4967 94.1758 37.2923 95.0287 37.0942 95.854C36.9196 96.579 36.7556 97.2635 36.6874 97.9587C36.5618 99.2381 36.9196 100.776 38.0015 101.321C38.7639 101.707 39.7415 101.569 40.8469 101.364L45.8583 100.439C46.921 100.242 48.8996 99.8757 50.2414 101.042C51.1146 101.801 51.5277 103.072 51.4 104.616C51.3638 105.064 51.2913 105.503 51.2211 105.925C51.1188 106.548 51.023 107.134 51.04 107.71C51.1018 109.783 52.7907 111.798 55.1441 112.61C57.0609 113.272 59.344 113.263 62.33 112.583C65.0561 111.962 67.6949 110.992 70.1761 109.702C70.5424 109.512 70.9918 109.655 71.1814 110.02C71.3709 110.386 71.2282 110.836 70.864 111.026C68.27 112.374 65.5119 113.387 62.6623 114.037C61.0372 114.406 59.5932 114.591 58.2834 114.591Z" fill="white"/>
<path opacity="0.75" d="M30.1125 59.269H86.162C86.162 55.2004 83.4657 51.7651 79.7663 50.6498C78.7674 46.1739 74.8039 42.8218 70.0481 42.762C67.4966 37.7978 62.3276 34.4009 56.3664 34.4009C48.7524 34.4009 42.4333 39.9409 41.2044 47.2124C41.132 47.2102 41.0596 47.206 40.9872 47.206C34.9471 47.206 30.0508 52.1084 30.0508 58.1559C30.0508 58.5312 30.07 58.9022 30.1062 59.2669C30.1083 59.2711 30.1125 59.269 30.1125 59.269Z" fill="white"/>
<path opacity="0.75" d="M380.769 37.6633H455.094C455.094 32.2683 451.52 27.7134 446.613 26.2336C445.288 20.2991 440.034 15.8509 433.724 15.7741C430.339 9.1892 423.484 4.68555 415.58 4.68555C405.485 4.68555 397.102 12.0317 395.475 21.6766C395.379 21.6745 395.283 21.6702 395.187 21.6702C387.177 21.6702 380.684 28.1719 380.684 36.1919C380.684 36.6888 380.709 37.1792 380.758 37.6654C380.764 37.6633 380.769 37.6633 380.769 37.6633Z" fill="white"/>
<path d="M80.1894 139.686C80.1894 140.274 79.7123 140.752 79.1245 140.752C78.5367 140.752 78.0596 140.274 78.0596 139.686C78.0596 139.097 78.5367 138.62 79.1245 138.62C79.7123 138.62 80.1894 139.097 80.1894 139.686Z" fill="white"/>
<path d="M86.16 139.686C86.16 140.274 85.6829 140.752 85.0951 140.752C84.5073 140.752 84.0303 140.274 84.0303 139.686C84.0303 139.097 84.5073 138.62 85.0951 138.62C85.6829 138.62 86.16 139.097 86.16 139.686Z" fill="white"/>
<path d="M92.1337 139.686C92.1337 140.274 91.6566 140.752 91.0688 140.752C90.481 140.752 90.0039 140.274 90.0039 139.686C90.0039 139.097 90.481 138.62 91.0688 138.62C91.6566 138.62 92.1337 139.097 92.1337 139.686Z" fill="white"/>
<path d="M98.1092 139.686C98.1092 140.274 97.6321 140.752 97.0443 140.752C96.4565 140.752 95.9795 140.274 95.9795 139.686C95.9795 139.097 96.4565 138.62 97.0443 138.62C97.6321 138.62 98.1092 139.097 98.1092 139.686Z" fill="white"/>
<path d="M80.1885 144.861C80.1885 145.45 79.7114 145.927 79.1235 145.927C78.5357 145.927 78.0586 145.45 78.0586 144.861C78.0586 144.273 78.5357 143.795 79.1235 143.795C79.7114 143.795 80.1885 144.273 80.1885 144.861Z" fill="white"/>
<path d="M86.16 144.861C86.16 145.45 85.6829 145.927 85.0951 145.927C84.5073 145.927 84.0303 145.45 84.0303 144.861C84.0303 144.273 84.5073 143.795 85.0951 143.795C85.6829 143.795 86.16 144.273 86.16 144.861Z" fill="white"/>
<path d="M91.0688 145.927C91.6569 145.927 92.1337 145.45 92.1337 144.861C92.1337 144.272 91.6569 143.795 91.0688 143.795C90.4807 143.795 90.0039 144.272 90.0039 144.861C90.0039 145.45 90.4807 145.927 91.0688 145.927Z" fill="white"/>
<path d="M98.1092 144.861C98.1092 145.45 97.6321 145.927 97.0443 145.927C96.4565 145.927 95.9795 145.45 95.9795 144.861C95.9795 144.273 96.4565 143.795 97.0443 143.795C97.6321 143.795 98.1092 144.273 98.1092 144.861Z" fill="white"/>
<path d="M460.501 128.832C460.501 129.42 460.024 129.898 459.436 129.898C458.848 129.898 458.371 129.42 458.371 128.832C458.371 128.243 458.848 127.766 459.436 127.766C460.024 127.766 460.501 128.243 460.501 128.832Z" fill="white"/>
<path d="M466.475 128.832C466.475 129.42 465.998 129.898 465.411 129.898C464.823 129.898 464.346 129.42 464.346 128.832C464.346 128.243 464.823 127.766 465.411 127.766C465.998 127.766 466.475 128.243 466.475 128.832Z" fill="white"/>
<path d="M472.45 128.832C472.45 129.42 471.973 129.898 471.385 129.898C470.797 129.898 470.32 129.42 470.32 128.832C470.32 128.243 470.797 127.766 471.385 127.766C471.973 127.766 472.45 128.243 472.45 128.832Z" fill="white"/>
<path d="M478.421 128.832C478.421 129.42 477.944 129.898 477.356 129.898C476.768 129.898 476.291 129.42 476.291 128.832C476.291 128.243 476.768 127.766 477.356 127.766C477.944 127.766 478.421 128.243 478.421 128.832Z" fill="white"/>
<path d="M460.501 134.007C460.501 134.596 460.024 135.073 459.436 135.073C458.848 135.073 458.371 134.596 458.371 134.007C458.371 133.419 458.848 132.941 459.436 132.941C460.024 132.941 460.501 133.419 460.501 134.007Z" fill="white"/>
<path d="M466.475 134.007C466.475 134.596 465.998 135.073 465.411 135.073C464.823 135.073 464.346 134.596 464.346 134.007C464.346 133.419 464.823 132.941 465.411 132.941C465.998 132.941 466.475 133.419 466.475 134.007Z" fill="white"/>
<path d="M472.45 134.007C472.45 134.596 471.973 135.073 471.385 135.073C470.797 135.073 470.32 134.596 470.32 134.007C470.32 133.419 470.797 132.941 471.385 132.941C471.973 132.941 472.45 133.419 472.45 134.007Z" fill="white"/>
<path d="M478.421 134.007C478.421 134.596 477.944 135.073 477.356 135.073C476.768 135.073 476.291 134.596 476.291 134.007C476.291 133.419 476.768 132.941 477.356 132.941C477.944 132.941 478.421 133.419 478.421 134.007Z" fill="white"/>
<path d="M184.324 97.52L285.301 171.491L386.277 97.52H184.324Z" fill="#40C9C6"/>
<path d="M285.301 172.237C285.146 172.237 284.992 172.188 284.86 172.092L183.885 98.1211C183.625 97.9313 183.517 97.5944 183.617 97.2873C183.717 96.9803 184.002 96.7734 184.326 96.7734H386.279C386.6 96.7734 386.888 96.9803 386.988 97.2873C387.088 97.5944 386.979 97.9313 386.719 98.1211L285.742 172.092C285.61 172.188 285.455 172.237 285.301 172.237ZM186.605 98.2661L285.299 170.565L383.993 98.2661H186.605Z" fill="#070707"/>
<path d="M285.301 11.4487L386.277 97.5212H184.324L285.301 11.4487Z" fill="#40C9C6"/>
<path d="M386.277 98.2667H184.325C184.012 98.2667 183.733 98.0726 183.626 97.7783C183.518 97.4841 183.605 97.1557 183.843 96.9531L284.819 10.8806C285.098 10.644 285.506 10.644 285.785 10.8806L386.763 96.9531C387.001 97.1557 387.086 97.4862 386.98 97.7783C386.869 98.0726 386.59 98.2667 386.277 98.2667ZM186.35 96.774H384.252L285.302 12.4288L186.35 96.774Z" fill="#070707"/>
<path d="M285.303 37.3483H198.917C198.184 37.3483 197.59 38.0264 197.59 38.8623V176.618C197.59 177.454 198.184 178.132 198.917 178.132H285.303H371.689C372.422 178.132 373.016 177.454 373.016 176.618V38.8602C373.016 38.0243 372.422 37.3462 371.689 37.3462H285.303V37.3483Z" fill="white"/>
<path d="M371.687 178.878H198.915C197.773 178.878 196.843 177.865 196.843 176.618V38.86C196.843 37.6146 197.771 36.5996 198.915 36.5996H371.687C372.829 36.5996 373.759 37.6125 373.759 38.86V176.616C373.759 177.863 372.829 178.878 371.687 178.878ZM198.915 38.0944C198.6 38.0944 198.334 38.4463 198.334 38.8621V176.618C198.334 177.034 198.6 177.385 198.915 177.385H371.687C372.002 177.385 372.269 177.034 372.269 176.618V38.86C372.269 38.4441 372.002 38.0923 371.687 38.0923H198.915V38.0944Z" fill="#070707"/>
<path d="M386.276 229.997V97.521L303.08 158.467L386.276 229.997Z" fill="#40C9C6"/>
<path d="M386.277 230.743C386.102 230.743 385.929 230.681 385.791 230.563L302.595 159.032C302.423 158.883 302.327 158.665 302.335 158.437C302.344 158.209 302.457 157.998 302.64 157.863L385.836 96.9169C386.062 96.7506 386.364 96.7272 386.613 96.853C386.864 96.9809 387.022 97.2368 387.022 97.5183V229.994C387.022 230.286 386.852 230.551 386.588 230.672C386.49 230.721 386.383 230.743 386.277 230.743ZM304.28 158.514L385.531 228.373V98.9918L304.28 158.514Z" fill="#070707"/>
<path d="M184.324 229.996V97.52L267.522 158.466L184.324 229.996Z" fill="#40C9C6"/>
<path d="M184.325 230.742C184.22 230.742 184.114 230.72 184.014 230.673C183.749 230.552 183.579 230.287 183.579 229.995V97.5197C183.579 97.2382 183.737 96.9823 183.988 96.8544C184.237 96.7264 184.54 96.752 184.765 96.9183L267.961 157.865C268.144 157.999 268.257 158.21 268.266 158.438C268.274 158.666 268.178 158.886 268.006 159.033L184.81 230.565C184.674 230.68 184.499 230.742 184.325 230.742ZM185.07 98.991V228.373L266.321 158.513L185.07 98.991Z" fill="#070707"/>
<path d="M303.081 158.466L285.301 171.491L267.522 158.466L184.324 229.995H386.277L303.081 158.466Z" fill="#40C9C6"/>
<path d="M386.277 230.742H184.324C184.013 230.742 183.734 230.548 183.626 230.256C183.517 229.964 183.602 229.633 183.839 229.43L267.034 157.899C267.296 157.673 267.68 157.658 267.961 157.863L285.302 170.565L302.642 157.863C302.921 157.658 303.305 157.673 303.569 157.899L386.764 229.43C387.001 229.633 387.086 229.964 386.977 230.256C386.869 230.548 386.59 230.742 386.277 230.742ZM186.337 229.249H384.264L303.043 159.417L285.74 172.092C285.478 172.284 285.123 172.284 284.861 172.092L267.558 159.417L186.337 229.249Z" fill="#070707"/>
<path d="M307.856 58.7196C312.618 61.0781 316.254 64.4089 318.765 68.71C321.276 73.0132 322.53 77.9881 322.53 83.6368C322.53 88.4049 321.74 92.8616 320.162 97.007C318.582 101.155 316.396 104.483 313.6 106.997C310.806 109.511 307.673 110.767 304.205 110.767C301.722 110.767 299.663 110.3 298.033 109.369C296.404 108.435 295.303 107.115 294.732 105.404C291.265 108.98 286.63 110.77 280.835 110.77C277.677 110.77 274.842 110.096 272.333 108.748C269.822 107.4 267.856 105.471 266.434 102.956C265.009 100.442 264.298 97.5273 264.298 94.2114C264.298 90.0127 265.215 86.1658 267.053 82.6666C268.891 79.1694 271.441 76.3973 274.702 74.348C277.962 72.3009 281.638 71.2774 285.727 71.2774C291.887 71.2774 296.234 73.429 298.77 77.73L299.935 71.7444H308.631L303.275 98.3312C303.119 99.0051 303.04 99.6022 303.04 100.118C303.04 102.347 304.205 103.462 306.535 103.462C308.45 103.462 310.133 102.489 311.581 100.547C313.029 98.6042 314.143 96.1157 314.92 93.0834C315.696 90.0511 316.085 87.0337 316.085 84.027C316.085 77.0306 313.845 71.5375 309.368 67.5457C304.891 63.5559 298.383 61.56 289.842 61.56C283.01 61.56 276.965 63.0761 271.711 66.1084C266.457 69.1407 262.393 73.2733 259.523 78.5084C256.649 83.7434 255.214 89.5734 255.214 96.0005C255.214 100.717 256.185 104.863 258.125 108.439C260.066 112.015 262.926 114.787 266.704 116.757C270.482 118.726 275.038 119.711 280.369 119.711C285.96 119.711 290.928 118.7 295.277 116.678L296.675 122.82C294.345 123.856 291.691 124.673 288.716 125.268C285.738 125.863 282.801 126.161 279.902 126.161C273.381 126.161 267.714 124.918 262.898 122.43C258.085 119.943 254.409 116.47 251.872 112.013C249.336 107.556 248.066 102.4 248.066 96.5421C248.066 88.7695 249.853 81.7326 253.423 75.4356C256.994 69.1386 262.027 64.1914 268.525 60.5876C275.021 56.986 282.435 55.1841 290.771 55.1841C297.401 55.182 303.094 56.3612 307.856 58.7196ZM290.076 101.28C292.147 99.986 293.75 98.2097 294.89 95.9557C296.027 93.7018 296.598 91.2026 296.598 88.4539C296.598 85.396 295.691 83.0248 293.88 81.3402C292.068 79.6556 289.559 78.8133 286.349 78.8133C283.813 78.8133 281.547 79.4232 279.555 80.6408C277.562 81.8584 275.996 83.5835 274.857 85.8097C273.718 88.0381 273.149 90.6034 273.149 93.5056C273.149 96.6147 274.016 99.0136 275.749 100.696C277.483 102.381 279.93 103.223 283.086 103.223C285.676 103.225 288.004 102.577 290.076 101.28Z" fill="#304156"/>
<path d="M214.846 165.331H115.449V230.213H214.846V165.331Z" fill="#1890FF"/>
<path d="M214.846 230.958H115.45C115.038 230.958 114.704 230.623 114.704 230.212V165.329C114.704 164.917 115.038 164.583 115.45 164.583H214.846C215.257 164.583 215.592 164.917 215.592 165.329V230.212C215.592 230.625 215.257 230.958 214.846 230.958ZM116.195 229.465H214.101V166.075H116.195V229.465Z" fill="#070707"/>
<path d="M115.449 165.331L165.148 197.771L214.846 165.331H115.449Z" fill="#1890FF"/>
<path d="M165.148 198.517C165.005 198.517 164.865 198.476 164.741 198.395L115.043 165.955C114.766 165.774 114.642 165.435 114.736 165.117C114.83 164.801 115.122 164.584 115.452 164.584H214.849C215.179 164.584 215.468 164.801 215.564 165.117C215.658 165.433 215.532 165.774 215.257 165.955L165.555 198.395C165.431 198.476 165.289 198.517 165.148 198.517ZM117.958 166.077L165.148 196.881L212.338 166.077H117.958Z" fill="#070707"/>
<path d="M165.148 198.517C165.005 198.517 164.865 198.476 164.741 198.395L115.043 165.955C114.766 165.774 114.642 165.435 114.736 165.117C114.83 164.801 115.122 164.584 115.452 164.584H214.849C215.179 164.584 215.468 164.801 215.564 165.117C215.658 165.433 215.532 165.774 215.257 165.955L165.555 198.395C165.431 198.476 165.289 198.517 165.148 198.517ZM117.958 166.077L165.148 196.881L212.338 166.077H117.958Z" fill="#070707"/>
<path d="M189.88 104.737L196.448 128.119L187.703 131.2L178.191 108.857L189.88 104.737Z" fill="white"/>
<path d="M150.412 108.857L140.902 131.2L132.157 128.119L138.723 104.737L150.412 108.857Z" fill="white"/>
<path d="M157.009 90.7427C157.009 90.7427 141.547 91.2395 136.131 108.28C136.131 108.28 141.411 112.504 150.833 112.996L157.009 90.7427Z" fill="#1A93E5"/>
<path d="M171.824 90.7427C171.824 90.7427 187.286 91.2395 192.702 108.28C192.702 108.28 187.423 112.504 178.001 112.996L171.824 90.7427Z" fill="#1A93E5"/>
<path d="M164.466 88.457C137.676 89.7493 144.812 149.45 144.812 149.45C152.056 153.148 164.466 153.148 164.466 153.148C164.466 153.148 176.876 153.148 184.12 149.45C184.12 149.45 191.259 89.7514 164.466 88.457Z" fill="#48A9F9"/>
<path d="M187.016 140.484H139.646V153.148H187.016V140.484Z" fill="#08223A"/>
<path d="M184.982 159.578L182.028 166.417C182.028 166.417 128.858 171.449 118.028 149.494C107.198 127.539 147.566 142.82 154.458 145.285C161.352 147.748 184.982 159.578 184.982 159.578Z" fill="#08223A"/>
<path d="M184.913 159.511C184.913 159.511 190.732 160.667 193.603 162.803C196.474 164.94 197.3 166.452 196.855 167.569C196.35 168.836 187.921 170.032 182.096 166.418L184.913 159.511Z" fill="#070707"/>
<path d="M147.701 159.578L150.655 166.417C150.655 166.417 203.825 171.449 214.655 149.494C225.485 127.539 185.117 142.82 178.225 145.285C171.331 147.748 147.701 159.578 147.701 159.578Z" fill="#113255"/>
<path d="M166.818 86.8682H164.465H162.111L160.991 94.0714C161.999 95.1291 164.465 95.1291 164.465 95.1291C164.465 95.1291 166.929 95.1291 167.939 94.0714L166.818 86.8682Z" fill="white"/>
<path d="M166.819 86.8682H164.465H162.112L161.375 91.5999C162.608 92.2375 163.863 92.2844 164.463 92.261C165.066 92.2844 166.318 92.2375 167.551 91.5999L166.819 86.8682Z" fill="#FCF1D2"/>
<path d="M168.441 74.0566L160.16 76.0568C160.16 76.0568 157.664 83.5117 158.518 86.5717C159.704 90.828 163.304 91.0391 164.466 90.9922C165.629 91.0391 169.229 90.828 170.415 86.5717C171.271 83.5117 168.441 74.0566 168.441 74.0566Z" fill="white"/>
<path d="M158.869 82.2748C160.174 81.9754 160.989 80.6738 160.69 79.3675C160.391 78.0612 159.091 77.2449 157.786 77.5443C156.481 77.8437 155.666 79.1454 155.965 80.4517C156.264 81.758 157.564 82.5742 158.869 82.2748Z" fill="white"/>
<path d="M172.926 80.523C173.281 79.2307 172.523 77.8949 171.232 77.5394C169.942 77.1838 168.608 77.9431 168.252 79.2354C167.897 80.5276 168.656 81.8634 169.946 82.219C171.237 82.5746 172.571 81.8152 172.926 80.523Z" fill="white"/>
<path d="M158.808 81.1424C158.808 81.1424 159.826 76.8286 161.611 76.8904C163.396 76.9523 165.981 75.2271 165.981 75.2271C165.981 75.2271 169.274 77.754 170.145 81.1424C170.145 81.1424 170.895 76.4895 170.648 74.6727C170.43 73.067 168.812 70.6062 166.78 71.5296C166.78 71.5296 162.533 69.0645 159.703 71.6532C156.872 74.242 158.808 81.1424 158.808 81.1424Z" fill="#070707"/>
<path d="M139.447 123.507C141.568 124.123 143.671 124.825 145.764 125.556C146.812 125.916 147.856 126.302 148.901 126.676C149.943 127.066 150.986 127.447 152.026 127.848C154.104 128.648 156.181 129.458 158.247 130.316C160.313 131.166 162.374 132.045 164.417 132.998C165.548 133.527 166.037 134.873 165.509 136.005C165.12 136.843 164.278 137.329 163.411 137.31C161.158 137.259 158.922 137.131 156.694 136.977C154.464 136.828 152.243 136.634 150.026 136.429C148.918 136.327 147.813 136.205 146.705 136.094C145.602 135.966 144.497 135.849 143.398 135.706C141.196 135.433 139.002 135.128 136.828 134.742C133.69 134.184 131.599 131.183 132.159 128.042C132.717 124.901 135.714 122.807 138.851 123.368C139.051 123.402 139.256 123.449 139.447 123.507Z" fill="white"/>
<path d="M192.063 134.726C190.076 135.095 188.07 135.381 186.053 135.634C185.048 135.767 184.034 135.875 183.025 135.995C182.011 136.097 180.999 136.208 179.983 136.304C177.952 136.492 175.918 136.666 173.871 136.799C171.826 136.933 169.775 137.044 167.705 137.076C166.453 137.095 165.42 136.095 165.401 134.841C165.386 133.943 165.897 133.157 166.647 132.777C168.495 131.843 170.361 130.986 172.235 130.154C174.107 129.318 175.99 128.527 177.877 127.749C178.82 127.358 179.768 126.987 180.712 126.606C181.662 126.241 182.607 125.866 183.559 125.516C185.461 124.804 187.372 124.124 189.303 123.524C192.349 122.582 195.582 124.29 196.523 127.339C197.465 130.389 195.759 133.626 192.713 134.568C192.5 134.632 192.281 134.685 192.063 134.726Z" fill="white"/>
<path d="M147.837 159.511C147.837 159.511 142.018 160.667 139.147 162.803C136.276 164.94 135.45 166.452 135.895 167.569C136.4 168.836 144.83 170.032 150.655 166.418L147.837 159.511Z" fill="#070707"/>
<path d="M191.235 139.098H140.035V110.011C140.035 108.743 141.062 107.715 142.329 107.715H188.939C190.206 107.715 191.233 108.743 191.233 110.011V139.098H191.235Z" fill="white"/>
<path d="M191.234 139.843H140.034C139.623 139.843 139.289 139.509 139.289 139.097V110.011C139.289 108.333 140.652 106.968 142.328 106.968H188.938C190.615 106.968 191.978 108.333 191.978 110.011V139.097C191.98 139.509 191.645 139.843 191.234 139.843ZM140.78 138.351H190.489V110.011C190.489 109.156 189.795 108.461 188.941 108.461H142.33C141.476 108.461 140.782 109.156 140.782 110.011V138.351H140.78Z" fill="#070707"/>
<path d="M190.733 142.547H140.574C139.833 142.547 139.23 141.946 139.23 141.202V139.097H192.075V141.202C192.077 141.946 191.474 142.547 190.733 142.547Z" fill="#070707"/>
<path d="M165.636 126.69C167.448 126.69 168.918 125.219 168.918 123.404C168.918 121.589 167.448 120.118 165.636 120.118C163.823 120.118 162.354 121.589 162.354 123.404C162.354 125.219 163.823 126.69 165.636 126.69Z" fill="#070707"/>
</svg>
