<svg id="svg" version="1.1" xmlns="http://www.w3.org/2000/svg" xmlns:xlink="http://www.w3.org/1999/xlink" width="400" height="400" viewBox="0, 0, 400,400"><g id="svgg"><path id="path0" d="M202.060 0.265 C 189.267 2.001,178.947 9.977,175.022 21.161 L 173.970 24.157 173.783 90.243 L 173.596 156.328 117.416 185.569 L 61.236 214.810 61.141 140.364 L 61.047 65.918 58.145 65.924 C 31.045 65.989,5.981 85.616,0.850 110.793 C -0.181 115.853,-0.175 284.176,0.857 289.242 C 6.014 314.570,31.491 334.082,59.403 334.082 L 61.049 334.082 61.049 304.571 L 61.049 275.060 117.322 245.772 L 173.596 216.485 173.790 295.976 C 174.008 385.280,173.713 376.813,176.823 382.805 C 185.686 399.881,207.679 404.319,238.899 395.333 C 248.707 392.510,242.255 395.585,345.318 344.621 L 399.813 317.673 399.909 287.676 C 399.961 271.177,399.894 257.678,399.758 257.678 C 399.584 257.678,252.533 330.817,236.236 339.010 L 234.831 339.716 234.831 262.153 L 234.831 184.590 286.653 158.774 C 315.155 144.576,338.581 132.959,338.710 132.959 C 338.840 132.959,338.990 145.318,339.043 160.424 L 339.139 187.889 369.476 172.089 L 399.813 156.290 399.908 99.306 C 399.960 67.965,399.927 42.322,399.835 42.322 C 399.743 42.322,362.637 60.777,317.377 83.333 C 272.117 105.890,235.029 124.345,234.959 124.345 C 234.889 124.345,234.831 96.367,234.831 62.172 L 234.831 0.000 219.007 0.056 C 210.304 0.087,202.678 0.181,202.060 0.265 " stroke="none" fill="#2cace4" fill-rule="evenodd"></path><path id="path1" d="" stroke="none" fill="#30ace4" fill-rule="evenodd"></path><path id="path2" d="" stroke="none" fill="#30ace4" fill-rule="evenodd"></path><path id="path3" d="" stroke="none" fill="#30ace4" fill-rule="evenodd"></path><path id="path4" d="" stroke="none" fill="#30ace4" fill-rule="evenodd"></path></g></svg>