<svg width="250" height="56" viewBox="0 0 250 56" fill="none" xmlns="http://www.w3.org/2000/svg">
<path d="M58.917 32.3117V18.8465C58.917 15.9263 61.2964 13.5469 64.2166 13.5469V22.7941H73.9505V13.5469C76.8707 13.5469 79.2501 15.9263 79.2501 18.8465V32.3117C79.2501 35.2319 76.8707 37.6113 73.9505 37.6113V27.2285H64.2166V37.6113C61.2964 37.6113 58.917 35.2319 58.917 32.3117Z" fill="white"/>
<path d="M86.5509 25.5513H81.7651C81.9003 23.4964 82.8196 21.9551 84.496 20.9547C85.8749 20.1165 87.7136 19.7109 89.9578 19.7109C95.0681 19.7109 97.6098 21.3603 97.6098 24.659V33.717C97.6098 35.6367 97.799 36.9346 98.2046 37.5835H93.3647C93.1754 36.9616 93.0402 36.3938 93.0132 35.9071C91.6342 37.3402 89.6874 38.0702 87.1458 38.0702C85.3883 38.0702 83.9823 37.6376 82.9277 36.7994C81.7921 35.8801 81.1973 34.5552 81.1973 32.8518C81.1973 31.0672 81.8192 29.7423 83.0359 28.8771C83.9282 28.2552 85.2801 27.8226 87.1187 27.5522C89.7144 27.2007 91.0123 27.0114 91.0664 26.9844C92.202 26.6869 92.7969 26.1191 92.7969 25.2809C92.7969 24.3345 92.4724 23.6856 91.8505 23.3341C91.3908 23.0637 90.6879 22.9286 89.6874 22.9286C87.7677 22.9015 86.7132 23.7938 86.5509 25.5513ZM92.8239 30.8509V29.0663C92.4454 29.4178 91.6072 29.6612 90.3363 29.8505C88.8763 30.0668 87.9029 30.2831 87.4432 30.4994C86.4968 30.932 86.0372 31.635 86.0372 32.6625C86.0372 34.1496 87.0106 34.8797 88.9574 34.8797C91.526 34.8797 92.8239 33.5277 92.8239 30.8509Z" fill="white"/>
<path d="M99.7734 31.9324H104.316C104.343 32.9329 104.722 33.6629 105.452 34.2037C106.1 34.6633 106.939 34.8797 107.966 34.8797C108.804 34.8797 109.507 34.7174 110.048 34.42C110.751 34.0144 111.103 33.4196 111.103 32.6625C111.103 31.9865 110.643 31.4457 109.697 31.0402C109.021 30.7427 107.696 30.3912 105.695 29.9586C103.991 29.6071 102.721 29.1204 101.882 28.5526C100.747 27.7955 100.152 26.714 100.152 25.3079C100.152 21.5766 102.694 19.7109 107.75 19.7109C112.563 19.7109 115.131 21.5496 115.429 25.2809H110.886C110.778 23.7127 109.697 22.9286 107.615 22.9286C105.83 22.9286 104.965 23.4693 104.965 24.5509C104.965 25.2809 105.533 25.8758 106.641 26.2813C106.776 26.3354 108.02 26.6058 110.373 27.1466C112.103 27.5522 113.374 28.0389 114.185 28.6337C115.321 29.4449 115.916 30.5805 115.916 32.0406C115.916 34.1496 115.077 35.7449 113.428 36.7994C112.049 37.6646 110.237 38.1243 107.966 38.1243C105.695 38.1243 103.856 37.6646 102.423 36.7724C100.774 35.6638 99.8816 34.0685 99.7734 31.9324Z" fill="white"/>
<path d="M118.051 32.8255V18.3327C118.051 15.6829 120.187 13.5469 122.837 13.5469V22.6048H122.945C123.513 21.6585 124.297 20.9284 125.27 20.4147C126.162 19.9551 127.082 19.7117 128.028 19.7117C130.435 19.7117 132.138 20.3606 133.111 21.6585C133.977 22.7941 134.382 24.5246 134.382 26.877V37.5843H129.596V27.7422C129.596 24.9031 128.569 23.4701 126.541 23.4701C125.243 23.4701 124.297 23.8486 123.702 24.6598C123.107 25.4439 122.837 26.7147 122.837 28.4722V37.6113C120.187 37.6113 118.051 35.4753 118.051 32.8255Z" fill="white"/>
<path d="M160.259 21.6309H155.121C154.959 20.4412 154.391 19.4408 153.364 18.6296C152.363 17.8184 151.174 17.4129 149.849 17.4129C147.632 17.4129 145.928 18.2781 144.793 19.9815C143.819 21.4416 143.305 23.3343 143.305 25.6867C143.305 27.9309 143.792 29.7695 144.793 31.2026C145.955 32.879 147.659 33.7442 149.849 33.7442C151.417 33.7442 152.688 33.2305 153.661 32.2301C154.554 31.2837 155.121 29.9858 155.311 28.3635H160.421C160.151 31.3648 159.042 33.7442 157.149 35.5288C155.23 37.3133 152.796 38.2056 149.849 38.2056C146.226 38.2056 143.332 36.9889 141.142 34.5554C139.06 32.2571 138.006 29.2828 138.006 25.6867C138.006 22.0094 139.06 18.9811 141.142 16.6558C143.305 14.1953 146.199 12.9785 149.849 12.9785C152.58 12.9785 154.905 13.7356 156.798 15.2498C158.799 16.791 159.961 18.927 160.259 21.6309Z" fill="white"/>
<path d="M167.397 25.5513H162.611C162.746 23.4964 163.665 21.9551 165.342 20.9547C166.748 20.1165 168.559 19.7109 170.803 19.7109C175.914 19.7109 178.455 21.3603 178.455 24.659V33.717C178.455 35.6367 178.645 36.9346 179.05 37.5835H174.21C174.021 36.9616 173.886 36.3938 173.859 35.9071C172.48 37.3402 170.533 38.0702 167.991 38.0702C166.234 38.0702 164.828 37.6376 163.773 36.7994C162.638 35.8801 162.043 34.5552 162.043 32.8518C162.043 31.0672 162.665 29.7423 163.882 28.8771C164.774 28.2552 166.153 27.8226 167.964 27.5522C170.56 27.2007 171.858 27.0114 171.912 26.9844C173.048 26.6869 173.643 26.1191 173.643 25.2809C173.643 24.3345 173.318 23.6856 172.696 23.3341C172.237 23.0637 171.534 22.9286 170.533 22.9286C168.586 22.9015 167.532 23.7938 167.397 25.5513ZM173.643 30.8509V29.0663C173.264 29.4178 172.426 29.6612 171.155 29.8505C169.695 30.0668 168.722 30.2831 168.262 30.4994C167.316 30.932 166.829 31.635 166.829 32.6625C166.829 34.1496 167.802 34.8797 169.776 34.8797C172.345 34.8797 173.643 33.5277 173.643 30.8509Z" fill="white"/>
<path d="M181.295 37.6109V20.1979H185.837V22.6314H185.946C187.135 20.7117 188.92 19.7383 191.272 19.7383C193.679 19.7383 195.382 20.3872 196.356 21.6851C197.221 22.8207 197.626 24.5512 197.626 26.9035V37.6109H192.84V27.7688C192.84 24.9297 191.813 23.4967 189.785 23.4967C188.487 23.4967 187.541 23.9022 186.946 24.6864C186.351 25.4705 186.081 26.7413 186.081 28.4988V37.6379H181.295V37.6109Z" fill="white"/>
<path d="M215.445 20.1709L209.55 37.6109H204.224L198.248 20.1709H203.277L206.955 32.0679H207.036L210.686 20.1709H215.445Z" fill="white"/>
<path d="M220.772 25.5513H215.986C216.121 23.4964 217.04 21.9551 218.717 20.9547C220.123 20.1165 221.934 19.7109 224.179 19.7109C229.289 19.7109 231.83 21.3603 231.83 24.659V33.717C231.83 35.6367 232.02 36.9346 232.425 37.5835H227.585C227.396 36.9616 227.261 36.3938 227.234 35.9071C225.855 37.3402 223.908 38.0702 221.367 38.0702C219.609 38.0702 218.203 37.6376 217.148 36.7994C216.013 35.8801 215.418 34.5552 215.418 32.8518C215.418 31.0672 216.04 29.7423 217.257 28.8771C218.149 28.2552 219.528 27.8226 221.339 27.5522C223.935 27.2007 225.233 27.0114 225.287 26.9844C226.423 26.6869 227.018 26.1191 227.018 25.2809C227.018 24.3345 226.693 23.6856 226.071 23.3341C225.612 23.0637 224.909 22.9286 223.908 22.9286C221.988 22.9015 220.934 23.7938 220.772 25.5513ZM227.045 30.8509V29.0663C226.666 29.4178 225.828 29.6612 224.557 29.8505C223.097 30.0668 222.124 30.2831 221.664 30.4994C220.718 30.932 220.258 31.635 220.258 32.6625C220.258 34.1496 221.231 34.8797 223.178 34.8797C225.747 34.8797 227.045 33.5277 227.045 30.8509Z" fill="white"/>
<path d="M233.885 31.9324H238.427C238.454 32.9329 238.833 33.6629 239.563 34.2037C240.212 34.6633 241.05 34.8797 242.077 34.8797C242.916 34.8797 243.619 34.7174 244.159 34.42C244.862 34.0144 245.214 33.4196 245.214 32.6625C245.214 31.9865 244.727 31.4457 243.808 31.0402C243.132 30.7427 241.807 30.3912 239.806 29.9586C238.103 29.6071 236.832 29.1204 235.994 28.5526C234.858 27.7955 234.263 26.714 234.263 25.3079C234.263 21.5766 236.805 19.7109 241.861 19.7109C246.674 19.7109 249.243 21.5496 249.54 25.2809H244.998C244.89 23.7127 243.808 22.9286 241.726 22.9286C239.941 22.9286 239.049 23.4693 239.049 24.5509C239.049 25.2809 239.617 25.8758 240.726 26.2813C240.861 26.3354 242.105 26.6058 244.457 27.1466C246.187 27.5522 247.458 28.0389 248.269 28.6337C249.405 29.4449 250 30.5805 250 32.0406C250 34.1496 249.162 35.7449 247.512 36.7994C246.133 37.6646 244.322 38.1243 242.05 38.1243C239.779 38.1243 237.941 37.6646 236.535 36.7724C234.858 35.6638 233.966 34.0685 233.885 31.9324Z" fill="white"/>
<path d="M49.2645 21.658V14.1683V5.89444L28.9044 17.3048V0H25.4705C23.2263 0 21.4147 1.81159 21.4147 4.05581V21.6851L7.48973 29.8507V9.11205C3.35281 9.11205 0 12.4648 0 16.6018V38.8276C0 42.9645 3.35281 46.3173 7.48973 46.3173V38.1246L21.4147 29.9589V51.4006C21.4147 53.6448 23.2263 55.4564 25.4705 55.4564C27.7147 55.4564 29.9048 54.8615 31.8516 53.7259L49.2645 44.0461V35.7722L28.9044 47.1826V25.5516L41.7748 18.3322V26.0112L49.2645 21.658Z" fill="#28AAE1"/>
</svg>
