<svg width="250" height="56" viewBox="0 0 250 56" fill="none" xmlns="http://www.w3.org/2000/svg">
<path d="M58.917 32.3113V18.846C58.917 15.9259 61.2964 13.5464 64.2166 13.5464V22.7937H73.9505V13.5464C76.8707 13.5464 79.2501 15.9259 79.2501 18.846V32.3113C79.2501 35.2315 76.8707 37.6109 73.9505 37.6109V27.228H64.2166V37.6109C61.2964 37.6109 58.917 35.2315 58.917 32.3113Z" fill="#304156"/>
<path d="M86.5509 25.5516H81.7651C81.9003 23.4966 82.8196 21.9554 84.496 20.955C85.8749 20.1168 87.7136 19.7112 89.9578 19.7112C95.0681 19.7112 97.6098 21.3605 97.6098 24.6593V33.7172C97.6098 35.637 97.799 36.9348 98.2046 37.5838H93.3647C93.1754 36.9619 93.0402 36.3941 93.0132 35.9074C91.6342 37.3404 89.6874 38.0705 87.1458 38.0705C85.3883 38.0705 83.9823 37.6378 82.9277 36.7996C81.7921 35.8803 81.1973 34.5554 81.1973 32.852C81.1973 31.0674 81.8192 29.7425 83.0359 28.8773C83.9282 28.2554 85.2801 27.8228 87.1187 27.5524C89.7144 27.2009 91.0123 27.0116 91.0664 26.9846C92.202 26.6872 92.7969 26.1193 92.7969 25.2811C92.7969 24.3348 92.4724 23.6859 91.8505 23.3344C91.3908 23.064 90.6879 22.9288 89.6874 22.9288C87.7677 22.9018 86.7132 23.794 86.5509 25.5516ZM92.8239 30.8511V29.0666C92.4454 29.4181 91.6072 29.6614 90.3363 29.8507C88.8763 30.067 87.9029 30.2833 87.4432 30.4996C86.4968 30.9322 86.0372 31.6353 86.0372 32.6627C86.0372 34.1499 87.0106 34.8799 88.9574 34.8799C91.526 34.8799 92.8239 33.528 92.8239 30.8511Z" fill="#304156"/>
<path d="M99.7725 31.9327H104.315C104.342 32.9331 104.721 33.6632 105.451 34.2039C106.1 34.6636 106.938 34.8799 107.965 34.8799C108.803 34.8799 109.506 34.7177 110.047 34.4202C110.75 34.0147 111.102 33.4198 111.102 32.6627C111.102 31.9868 110.642 31.446 109.696 31.0404C109.02 30.743 107.695 30.3915 105.694 29.9589C103.991 29.6074 102.72 29.1206 101.881 28.5528C100.746 27.7957 100.151 26.7142 100.151 25.3082C100.151 21.5769 102.693 19.7112 107.749 19.7112C112.562 19.7112 115.13 21.5498 115.428 25.2811H110.885C110.777 23.7129 109.696 22.9288 107.614 22.9288C105.829 22.9288 104.964 23.4696 104.964 24.5511C104.964 25.2812 105.532 25.876 106.64 26.2816C106.775 26.3357 108.019 26.6061 110.372 27.1468C112.102 27.5524 113.373 28.0391 114.184 28.634C115.32 29.4451 115.915 30.5807 115.915 32.0408C115.915 34.1498 115.076 35.7451 113.427 36.7996C112.048 37.6649 110.236 38.1245 107.965 38.1245C105.694 38.1245 103.855 37.6649 102.422 36.7726C100.773 35.664 99.8806 34.0687 99.7725 31.9327Z" fill="#304156"/>
<path d="M118.051 32.825V18.3323C118.051 15.6825 120.187 13.5464 122.837 13.5464V22.6044H122.945C123.513 21.6581 124.297 20.928 125.27 20.4143C126.162 19.9546 127.082 19.7113 128.028 19.7113C130.435 19.7113 132.138 20.3602 133.111 21.6581C133.977 22.7937 134.382 24.5242 134.382 26.8765V37.5839H129.596V27.7418C129.596 24.9027 128.569 23.4696 126.541 23.4696C125.243 23.4696 124.297 23.8482 123.702 24.6594C123.107 25.4435 122.837 26.7143 122.837 28.4718V37.6109C120.187 37.6109 118.051 35.4748 118.051 32.825Z" fill="#304156"/>
<path d="M160.259 21.631H155.121C154.959 20.4413 154.391 19.4408 153.364 18.6297C152.363 17.8185 151.174 17.4129 149.849 17.4129C147.632 17.4129 145.928 18.2782 144.793 19.9816C143.819 21.4417 143.305 23.3344 143.305 25.6868C143.305 27.931 143.792 29.7696 144.793 31.2027C145.955 32.8791 147.659 33.7443 149.849 33.7443C151.417 33.7443 152.688 33.2306 153.661 32.2301C154.554 31.2838 155.121 29.9859 155.311 28.3636H160.421C160.151 31.3649 159.042 33.7443 157.149 35.5288C155.23 37.3134 152.796 38.2057 149.849 38.2057C146.226 38.2057 143.332 36.9889 141.142 34.5555C139.06 32.2572 138.006 29.2829 138.006 25.6868C138.006 22.0095 139.06 18.9812 141.142 16.6558C143.305 14.1953 146.199 12.9786 149.849 12.9786C152.58 12.9786 154.905 13.7357 156.798 15.2498C158.799 16.791 159.961 18.9271 160.259 21.631Z" fill="#304156"/>
<path d="M167.397 25.5516H162.611C162.746 23.4966 163.665 21.9554 165.342 20.955C166.748 20.1168 168.559 19.7112 170.803 19.7112C175.914 19.7112 178.455 21.3605 178.455 24.6593V33.7172C178.455 35.637 178.645 36.9348 179.05 37.5838H174.21C174.021 36.9619 173.886 36.3941 173.859 35.9074C172.48 37.3404 170.533 38.0705 167.991 38.0705C166.234 38.0705 164.828 37.6378 163.773 36.7996C162.638 35.8803 162.043 34.5554 162.043 32.852C162.043 31.0674 162.665 29.7425 163.882 28.8773C164.774 28.2554 166.153 27.8228 167.964 27.5524C170.56 27.2009 171.858 27.0116 171.912 26.9846C173.048 26.6872 173.643 26.1193 173.643 25.2811C173.643 24.3348 173.318 23.6859 172.696 23.3344C172.237 23.064 171.534 22.9288 170.533 22.9288C168.586 22.9018 167.532 23.794 167.397 25.5516ZM173.643 30.8511V29.0666C173.264 29.4181 172.426 29.6614 171.155 29.8507C169.695 30.067 168.722 30.2833 168.262 30.4996C167.316 30.9322 166.829 31.6353 166.829 32.6627C166.829 34.1499 167.802 34.8799 169.776 34.8799C172.345 34.8799 173.643 33.528 173.643 30.8511Z" fill="#304156"/>
<path d="M181.295 37.6108V20.1979H185.837V22.6314H185.946C187.135 20.7116 188.92 19.7382 191.272 19.7382C193.679 19.7382 195.382 20.3872 196.356 21.685C197.221 22.8206 197.626 24.5511 197.626 26.9035V37.6108H192.84V27.7687C192.84 24.9297 191.813 23.4966 189.785 23.4966C188.487 23.4966 187.541 23.9022 186.946 24.6863C186.351 25.4704 186.081 26.7412 186.081 28.4988V37.6378H181.295V37.6108Z" fill="#304156"/>
<path d="M215.445 20.171L209.55 37.6109H204.224L198.248 20.171H203.277L206.955 32.068H207.036L210.686 20.171H215.445Z" fill="#304156"/>
<path d="M220.772 25.5516H215.986C216.121 23.4966 217.04 21.9554 218.717 20.955C220.123 20.1168 221.934 19.7112 224.179 19.7112C229.289 19.7112 231.83 21.3605 231.83 24.6593V33.7172C231.83 35.637 232.02 36.9348 232.425 37.5838H227.585C227.396 36.9619 227.261 36.3941 227.234 35.9074C225.855 37.3404 223.908 38.0705 221.367 38.0705C219.609 38.0705 218.203 37.6378 217.148 36.7996C216.013 35.8803 215.418 34.5554 215.418 32.852C215.418 31.0674 216.04 29.7425 217.257 28.8773C218.149 28.2554 219.528 27.8228 221.339 27.5524C223.935 27.2009 225.233 27.0116 225.287 26.9846C226.423 26.6872 227.018 26.1193 227.018 25.2811C227.018 24.3348 226.693 23.6859 226.071 23.3344C225.612 23.064 224.909 22.9288 223.908 22.9288C221.988 22.9018 220.934 23.794 220.772 25.5516ZM227.045 30.8511V29.0666C226.666 29.4181 225.828 29.6614 224.557 29.8507C223.097 30.067 222.124 30.2833 221.664 30.4996C220.718 30.9322 220.258 31.6353 220.258 32.6627C220.258 34.1499 221.231 34.8799 223.178 34.8799C225.747 34.8799 227.045 33.528 227.045 30.8511Z" fill="#304156"/>
<path d="M233.885 31.9327H238.427C238.454 32.9331 238.833 33.6632 239.563 34.2039C240.212 34.6636 241.05 34.8799 242.077 34.8799C242.916 34.8799 243.619 34.7177 244.159 34.4202C244.862 34.0147 245.214 33.4198 245.214 32.6627C245.214 31.9868 244.727 31.446 243.808 31.0404C243.132 30.743 241.807 30.3915 239.806 29.9589C238.103 29.6074 236.832 29.1206 235.994 28.5528C234.858 27.7957 234.263 26.7142 234.263 25.3082C234.263 21.5769 236.805 19.7112 241.861 19.7112C246.674 19.7112 249.243 21.5498 249.54 25.2811H244.998C244.89 23.7129 243.808 22.9288 241.726 22.9288C239.941 22.9288 239.049 23.4696 239.049 24.5511C239.049 25.2812 239.617 25.876 240.726 26.2816C240.861 26.3357 242.105 26.6061 244.457 27.1468C246.187 27.5524 247.458 28.0391 248.269 28.634C249.405 29.4451 250 30.5807 250 32.0408C250 34.1498 249.162 35.7451 247.512 36.7996C246.133 37.6649 244.322 38.1245 242.05 38.1245C239.779 38.1245 237.941 37.6649 236.535 36.7726C234.858 35.664 233.966 34.0687 233.885 31.9327Z" fill="#304156"/>
<path d="M49.2645 21.658V14.1683V5.89444L28.9044 17.3048V0H25.4705C23.2263 0 21.4147 1.81159 21.4147 4.05581V21.6851L7.48973 29.8507V9.11205C3.35281 9.11205 0 12.4648 0 16.6018V38.8276C0 42.9645 3.35281 46.3173 7.48973 46.3173V38.1246L21.4147 29.9589V51.4006C21.4147 53.6448 23.2263 55.4564 25.4705 55.4564C27.7147 55.4564 29.9048 54.8615 31.8516 53.7259L49.2645 44.0461V35.7722L28.9044 47.1826V25.5516L41.7748 18.3322V26.0112L49.2645 21.658Z" fill="#1890FF"/>
</svg>
